G04 EAGLE Gerber RS-274X export*
G75*
%MOMM*%
%FSLAX34Y34*%
%LPD*%
%INTop Copper*%
%IPPOS*%
%AMOC8*
5,1,8,0,0,1.08239X$1,22.5*%
G01*
%ADD10C,0.460000*%
%ADD11R,1.550000X0.600000*%
%ADD12R,3.000000X1.200000*%
%ADD13R,2.235200X1.219200*%
%ADD14R,2.600000X3.600000*%
%ADD15R,0.330000X2.200000*%
%ADD16R,0.400000X3.000000*%
%ADD17C,1.500000*%
%ADD18C,0.381000*%
%ADD19C,0.152400*%
%ADD20C,0.508000*%
%ADD21C,0.352400*%

G36*
X56609Y38748D02*
X56609Y38748D01*
X56747Y38761D01*
X56767Y38768D01*
X56787Y38771D01*
X56916Y38822D01*
X57047Y38869D01*
X57064Y38880D01*
X57082Y38888D01*
X57194Y38969D01*
X57310Y39047D01*
X57323Y39063D01*
X57340Y39074D01*
X57428Y39182D01*
X57520Y39286D01*
X57530Y39304D01*
X57542Y39319D01*
X57602Y39445D01*
X57665Y39569D01*
X57669Y39589D01*
X57678Y39607D01*
X57704Y39743D01*
X57735Y39879D01*
X57734Y39900D01*
X57738Y39920D01*
X57729Y40058D01*
X57725Y40197D01*
X57719Y40217D01*
X57718Y40237D01*
X57675Y40369D01*
X57637Y40503D01*
X57626Y40520D01*
X57620Y40539D01*
X57545Y40657D01*
X57475Y40777D01*
X57456Y40798D01*
X57450Y40808D01*
X57435Y40822D01*
X57369Y40898D01*
X48713Y49553D01*
X48713Y74947D01*
X58053Y84287D01*
X66001Y84287D01*
X66139Y84304D01*
X66277Y84317D01*
X66296Y84324D01*
X66316Y84327D01*
X66446Y84378D01*
X66577Y84425D01*
X66593Y84436D01*
X66612Y84444D01*
X66725Y84525D01*
X66840Y84603D01*
X66853Y84619D01*
X66869Y84630D01*
X66958Y84738D01*
X67050Y84842D01*
X67059Y84860D01*
X67072Y84875D01*
X67131Y85001D01*
X67195Y85125D01*
X67199Y85145D01*
X67208Y85163D01*
X67234Y85299D01*
X67264Y85435D01*
X67264Y85456D01*
X67268Y85475D01*
X67259Y85614D01*
X67255Y85753D01*
X67249Y85773D01*
X67248Y85793D01*
X67205Y85925D01*
X67166Y86059D01*
X67156Y86076D01*
X67150Y86095D01*
X67075Y86213D01*
X67005Y86333D01*
X66986Y86354D01*
X66980Y86364D01*
X66965Y86378D01*
X66898Y86454D01*
X66713Y86639D01*
X66713Y89361D01*
X68639Y91287D01*
X71361Y91287D01*
X71990Y90659D01*
X72068Y90598D01*
X72140Y90530D01*
X72193Y90501D01*
X72241Y90464D01*
X72332Y90424D01*
X72419Y90376D01*
X72477Y90361D01*
X72533Y90337D01*
X72631Y90322D01*
X72726Y90297D01*
X72826Y90291D01*
X72847Y90287D01*
X72859Y90289D01*
X72887Y90287D01*
X82113Y90287D01*
X82211Y90299D01*
X82310Y90302D01*
X82368Y90319D01*
X82428Y90327D01*
X82520Y90363D01*
X82616Y90391D01*
X82668Y90421D01*
X82724Y90444D01*
X82804Y90502D01*
X82889Y90552D01*
X82965Y90618D01*
X82981Y90630D01*
X82989Y90640D01*
X83010Y90658D01*
X83639Y91287D01*
X86361Y91287D01*
X88287Y89361D01*
X88287Y86639D01*
X88102Y86454D01*
X88016Y86344D01*
X87928Y86237D01*
X87919Y86218D01*
X87907Y86202D01*
X87851Y86074D01*
X87792Y85949D01*
X87788Y85929D01*
X87780Y85910D01*
X87758Y85772D01*
X87732Y85636D01*
X87734Y85616D01*
X87730Y85596D01*
X87744Y85457D01*
X87752Y85319D01*
X87758Y85300D01*
X87760Y85280D01*
X87807Y85149D01*
X87850Y85017D01*
X87861Y84999D01*
X87868Y84980D01*
X87946Y84866D01*
X88020Y84748D01*
X88035Y84734D01*
X88046Y84717D01*
X88151Y84625D01*
X88252Y84530D01*
X88270Y84520D01*
X88285Y84507D01*
X88409Y84444D01*
X88530Y84376D01*
X88550Y84371D01*
X88568Y84362D01*
X88704Y84332D01*
X88838Y84297D01*
X88866Y84295D01*
X88878Y84292D01*
X88899Y84293D01*
X88999Y84287D01*
X123527Y84287D01*
X123625Y84299D01*
X123724Y84302D01*
X123782Y84319D01*
X123843Y84327D01*
X123935Y84363D01*
X124030Y84391D01*
X124082Y84421D01*
X124138Y84444D01*
X124218Y84502D01*
X124304Y84552D01*
X124379Y84618D01*
X124396Y84630D01*
X124403Y84640D01*
X124425Y84658D01*
X126342Y86575D01*
X126402Y86654D01*
X126470Y86726D01*
X126499Y86779D01*
X126536Y86827D01*
X126576Y86918D01*
X126624Y87004D01*
X126639Y87063D01*
X126663Y87119D01*
X126678Y87217D01*
X126703Y87312D01*
X126709Y87412D01*
X126713Y87433D01*
X126711Y87445D01*
X126713Y87473D01*
X126713Y88361D01*
X128639Y90287D01*
X131799Y90287D01*
X131936Y90304D01*
X132075Y90317D01*
X132094Y90324D01*
X132114Y90327D01*
X132243Y90378D01*
X132374Y90425D01*
X132391Y90436D01*
X132410Y90444D01*
X132522Y90525D01*
X132637Y90603D01*
X132651Y90619D01*
X132667Y90630D01*
X132756Y90738D01*
X132848Y90842D01*
X132857Y90860D01*
X132870Y90875D01*
X132929Y91001D01*
X132993Y91125D01*
X132997Y91145D01*
X133006Y91163D01*
X133032Y91299D01*
X133062Y91435D01*
X133062Y91456D01*
X133065Y91475D01*
X133057Y91614D01*
X133053Y91753D01*
X133047Y91773D01*
X133046Y91793D01*
X133003Y91925D01*
X132964Y92059D01*
X132954Y92076D01*
X132948Y92095D01*
X132873Y92213D01*
X132803Y92333D01*
X132784Y92354D01*
X132777Y92364D01*
X132762Y92378D01*
X132696Y92453D01*
X129570Y95579D01*
X129570Y103996D01*
X129555Y104114D01*
X129548Y104233D01*
X129535Y104271D01*
X129530Y104312D01*
X129487Y104422D01*
X129450Y104535D01*
X129428Y104570D01*
X129413Y104607D01*
X129344Y104703D01*
X129280Y104804D01*
X129250Y104832D01*
X129227Y104865D01*
X129135Y104941D01*
X129048Y105022D01*
X129013Y105042D01*
X128982Y105067D01*
X128874Y105118D01*
X128770Y105176D01*
X128730Y105186D01*
X128694Y105203D01*
X128577Y105225D01*
X128462Y105255D01*
X128402Y105259D01*
X128382Y105263D01*
X128361Y105261D01*
X128301Y105265D01*
X118204Y105265D01*
X117311Y106158D01*
X117311Y108187D01*
X117296Y108305D01*
X117289Y108424D01*
X117276Y108462D01*
X117271Y108503D01*
X117228Y108613D01*
X117191Y108726D01*
X117169Y108761D01*
X117154Y108798D01*
X117085Y108894D01*
X117021Y108995D01*
X116991Y109023D01*
X116968Y109056D01*
X116876Y109132D01*
X116789Y109213D01*
X116754Y109233D01*
X116723Y109258D01*
X116615Y109309D01*
X116511Y109367D01*
X116471Y109377D01*
X116435Y109394D01*
X116318Y109416D01*
X116203Y109446D01*
X116143Y109450D01*
X116123Y109454D01*
X116102Y109452D01*
X116042Y109456D01*
X109693Y109456D01*
X103951Y115199D01*
X103873Y115259D01*
X103801Y115327D01*
X103748Y115356D01*
X103700Y115393D01*
X103609Y115433D01*
X103522Y115481D01*
X103464Y115496D01*
X103408Y115520D01*
X103310Y115535D01*
X103214Y115560D01*
X103114Y115566D01*
X103094Y115570D01*
X103082Y115568D01*
X103054Y115570D01*
X86252Y115570D01*
X86154Y115558D01*
X86055Y115555D01*
X85997Y115538D01*
X85937Y115530D01*
X85845Y115494D01*
X85750Y115466D01*
X85697Y115436D01*
X85641Y115413D01*
X85561Y115355D01*
X85476Y115305D01*
X85400Y115239D01*
X85384Y115227D01*
X85376Y115217D01*
X85355Y115198D01*
X84632Y114475D01*
X67868Y114475D01*
X66975Y115368D01*
X66975Y122632D01*
X67446Y123102D01*
X67519Y123196D01*
X67598Y123286D01*
X67616Y123322D01*
X67641Y123354D01*
X67688Y123463D01*
X67743Y123569D01*
X67751Y123608D01*
X67767Y123646D01*
X67786Y123763D01*
X67812Y123879D01*
X67811Y123920D01*
X67817Y123960D01*
X67806Y124078D01*
X67803Y124197D01*
X67791Y124236D01*
X67788Y124276D01*
X67747Y124388D01*
X67714Y124503D01*
X67694Y124538D01*
X67680Y124576D01*
X67613Y124674D01*
X67553Y124777D01*
X67513Y124822D01*
X67501Y124839D01*
X67486Y124852D01*
X67446Y124897D01*
X66975Y125368D01*
X66975Y132632D01*
X67446Y133102D01*
X67519Y133196D01*
X67598Y133286D01*
X67616Y133322D01*
X67641Y133354D01*
X67688Y133463D01*
X67743Y133569D01*
X67751Y133608D01*
X67767Y133646D01*
X67786Y133763D01*
X67812Y133879D01*
X67811Y133920D01*
X67817Y133960D01*
X67806Y134078D01*
X67803Y134197D01*
X67791Y134236D01*
X67788Y134276D01*
X67747Y134388D01*
X67714Y134503D01*
X67694Y134538D01*
X67680Y134576D01*
X67613Y134674D01*
X67553Y134777D01*
X67513Y134822D01*
X67501Y134839D01*
X67486Y134852D01*
X67446Y134897D01*
X66975Y135368D01*
X66975Y142755D01*
X67024Y142851D01*
X67033Y142890D01*
X67049Y142927D01*
X67068Y143045D01*
X67094Y143161D01*
X67093Y143201D01*
X67099Y143241D01*
X67088Y143360D01*
X67084Y143479D01*
X67073Y143518D01*
X67069Y143558D01*
X67029Y143670D01*
X66996Y143784D01*
X66975Y143819D01*
X66962Y143857D01*
X66895Y143956D01*
X66834Y144058D01*
X66794Y144103D01*
X66783Y144120D01*
X66768Y144134D01*
X66728Y144179D01*
X66467Y144440D01*
X66132Y145019D01*
X65959Y145666D01*
X65959Y147501D01*
X76020Y147501D01*
X76138Y147516D01*
X76257Y147523D01*
X76295Y147535D01*
X76335Y147541D01*
X76446Y147584D01*
X76559Y147621D01*
X76593Y147643D01*
X76631Y147658D01*
X76727Y147727D01*
X76828Y147791D01*
X76856Y147821D01*
X76888Y147844D01*
X76964Y147936D01*
X77046Y148023D01*
X77065Y148058D01*
X77091Y148089D01*
X77111Y148133D01*
X77187Y148188D01*
X77288Y148251D01*
X77316Y148281D01*
X77349Y148305D01*
X77425Y148396D01*
X77506Y148483D01*
X77526Y148518D01*
X77551Y148550D01*
X77602Y148657D01*
X77660Y148762D01*
X77670Y148801D01*
X77687Y148837D01*
X77709Y148954D01*
X77739Y149070D01*
X77743Y149130D01*
X77747Y149150D01*
X77745Y149170D01*
X77749Y149230D01*
X77749Y154541D01*
X84444Y154541D01*
X84562Y154556D01*
X84681Y154563D01*
X84719Y154576D01*
X84760Y154581D01*
X84870Y154624D01*
X84983Y154661D01*
X85018Y154683D01*
X85055Y154698D01*
X85151Y154767D01*
X85252Y154831D01*
X85280Y154861D01*
X85313Y154884D01*
X85389Y154976D01*
X85470Y155063D01*
X85490Y155098D01*
X85515Y155129D01*
X85566Y155237D01*
X85624Y155341D01*
X85634Y155381D01*
X85651Y155417D01*
X85673Y155534D01*
X85703Y155649D01*
X85707Y155709D01*
X85711Y155729D01*
X85709Y155750D01*
X85713Y155810D01*
X85713Y173527D01*
X85701Y173625D01*
X85698Y173724D01*
X85681Y173782D01*
X85673Y173843D01*
X85637Y173935D01*
X85609Y174030D01*
X85579Y174082D01*
X85556Y174138D01*
X85498Y174218D01*
X85448Y174304D01*
X85382Y174379D01*
X85370Y174396D01*
X85360Y174403D01*
X85342Y174425D01*
X42713Y217053D01*
X42713Y248605D01*
X42701Y248703D01*
X42698Y248802D01*
X42681Y248860D01*
X42673Y248920D01*
X42637Y249012D01*
X42609Y249107D01*
X42579Y249160D01*
X42556Y249216D01*
X42498Y249296D01*
X42448Y249381D01*
X42382Y249457D01*
X42370Y249473D01*
X42360Y249481D01*
X42342Y249502D01*
X41898Y249946D01*
X41803Y250019D01*
X41714Y250098D01*
X41678Y250116D01*
X41646Y250141D01*
X41537Y250188D01*
X41431Y250243D01*
X41391Y250251D01*
X41354Y250267D01*
X41237Y250286D01*
X41121Y250312D01*
X41080Y250311D01*
X41040Y250317D01*
X40922Y250306D01*
X40803Y250303D01*
X40764Y250291D01*
X40724Y250288D01*
X40611Y250247D01*
X40497Y250214D01*
X40463Y250194D01*
X40424Y250180D01*
X40326Y250113D01*
X40223Y250053D01*
X40178Y250013D01*
X40161Y250001D01*
X40148Y249986D01*
X40103Y249946D01*
X39632Y249475D01*
X34368Y249475D01*
X33475Y250368D01*
X33475Y281774D01*
X33481Y281784D01*
X33496Y281842D01*
X33520Y281898D01*
X33535Y281996D01*
X33560Y282092D01*
X33566Y282192D01*
X33570Y282212D01*
X33568Y282224D01*
X33570Y282252D01*
X33570Y296421D01*
X44579Y307430D01*
X176421Y307430D01*
X189430Y294421D01*
X189430Y282252D01*
X189442Y282154D01*
X189445Y282055D01*
X189462Y281997D01*
X189470Y281937D01*
X189506Y281845D01*
X189525Y281780D01*
X189525Y250226D01*
X189519Y250216D01*
X189504Y250158D01*
X189480Y250102D01*
X189465Y250004D01*
X189440Y249908D01*
X189434Y249808D01*
X189430Y249788D01*
X189432Y249776D01*
X189430Y249748D01*
X189430Y230579D01*
X187138Y228288D01*
X187095Y228233D01*
X187045Y228184D01*
X186998Y228108D01*
X186943Y228037D01*
X186916Y227973D01*
X186879Y227913D01*
X186853Y227827D01*
X186817Y227745D01*
X186806Y227676D01*
X186786Y227609D01*
X186781Y227520D01*
X186767Y227431D01*
X186774Y227361D01*
X186770Y227292D01*
X186789Y227204D01*
X186797Y227114D01*
X186821Y227048D01*
X186835Y226980D01*
X186874Y226899D01*
X186905Y226815D01*
X186944Y226757D01*
X186974Y226694D01*
X187033Y226626D01*
X187083Y226552D01*
X187135Y226505D01*
X187181Y226452D01*
X187254Y226401D01*
X187322Y226341D01*
X187384Y226309D01*
X187441Y226269D01*
X187525Y226237D01*
X187605Y226197D01*
X187673Y226181D01*
X187738Y226157D01*
X187828Y226147D01*
X187915Y226127D01*
X187985Y226129D01*
X188054Y226121D01*
X188143Y226134D01*
X188233Y226137D01*
X188300Y226156D01*
X188369Y226166D01*
X188521Y226218D01*
X189301Y226541D01*
X192699Y226541D01*
X195866Y225229D01*
X195902Y225201D01*
X196009Y225112D01*
X196028Y225103D01*
X196044Y225091D01*
X196172Y225036D01*
X196297Y224976D01*
X196317Y224973D01*
X196336Y224965D01*
X196473Y224943D01*
X196610Y224917D01*
X196630Y224918D01*
X196650Y224915D01*
X196788Y224928D01*
X196927Y224936D01*
X196946Y224943D01*
X196966Y224945D01*
X197098Y224992D01*
X197229Y225034D01*
X197246Y225045D01*
X197266Y225052D01*
X197381Y225130D01*
X197498Y225205D01*
X197512Y225219D01*
X197529Y225231D01*
X197621Y225335D01*
X197716Y225436D01*
X197726Y225454D01*
X197739Y225469D01*
X197802Y225593D01*
X197870Y225715D01*
X197875Y225734D01*
X197884Y225752D01*
X197914Y225889D01*
X197949Y226023D01*
X197951Y226051D01*
X197954Y226063D01*
X197953Y226083D01*
X197959Y226183D01*
X197959Y232731D01*
X206731Y232731D01*
X206731Y216535D01*
X205649Y216707D01*
X204146Y217195D01*
X202737Y217912D01*
X201556Y218771D01*
X201521Y218790D01*
X201491Y218815D01*
X201382Y218866D01*
X201277Y218924D01*
X201239Y218934D01*
X201203Y218951D01*
X201086Y218973D01*
X200969Y219003D01*
X200929Y219003D01*
X200890Y219011D01*
X200771Y219003D01*
X200651Y219003D01*
X200613Y218993D01*
X200573Y218991D01*
X200459Y218954D01*
X200343Y218924D01*
X200308Y218905D01*
X200271Y218893D01*
X200169Y218829D01*
X200065Y218771D01*
X200036Y218744D01*
X200002Y218723D01*
X199920Y218635D01*
X199833Y218554D01*
X199811Y218520D01*
X199784Y218491D01*
X199726Y218386D01*
X199662Y218285D01*
X199650Y218247D01*
X199630Y218213D01*
X199601Y218097D01*
X199563Y217983D01*
X199561Y217943D01*
X199551Y217905D01*
X199541Y217744D01*
X199541Y216301D01*
X198241Y213162D01*
X195838Y210759D01*
X192699Y209459D01*
X189301Y209459D01*
X186162Y210759D01*
X183759Y213162D01*
X182459Y216301D01*
X182459Y219699D01*
X182782Y220479D01*
X182801Y220546D01*
X182828Y220610D01*
X182842Y220699D01*
X182866Y220785D01*
X182867Y220855D01*
X182878Y220924D01*
X182870Y221013D01*
X182871Y221103D01*
X182855Y221171D01*
X182848Y221241D01*
X182818Y221325D01*
X182797Y221413D01*
X182764Y221474D01*
X182741Y221540D01*
X182690Y221614D01*
X182648Y221694D01*
X182601Y221745D01*
X182562Y221803D01*
X182495Y221863D01*
X182434Y221929D01*
X182376Y221967D01*
X182324Y222013D01*
X182244Y222054D01*
X182169Y222104D01*
X182103Y222126D01*
X182041Y222158D01*
X181953Y222178D01*
X181868Y222207D01*
X181798Y222212D01*
X181730Y222228D01*
X181641Y222225D01*
X181551Y222232D01*
X181482Y222220D01*
X181412Y222218D01*
X181326Y222193D01*
X181238Y222178D01*
X181174Y222149D01*
X181107Y222130D01*
X181029Y222084D01*
X180948Y222047D01*
X180893Y222004D01*
X180833Y221968D01*
X180712Y221862D01*
X158151Y199301D01*
X158091Y199223D01*
X158023Y199151D01*
X157994Y199098D01*
X157957Y199050D01*
X157917Y198959D01*
X157869Y198872D01*
X157854Y198814D01*
X157830Y198758D01*
X157815Y198660D01*
X157790Y198564D01*
X157784Y198464D01*
X157780Y198444D01*
X157782Y198432D01*
X157780Y198404D01*
X157780Y190255D01*
X157792Y190157D01*
X157795Y190058D01*
X157812Y190000D01*
X157820Y189939D01*
X157856Y189847D01*
X157884Y189752D01*
X157914Y189700D01*
X157937Y189644D01*
X157995Y189564D01*
X158045Y189478D01*
X158111Y189403D01*
X158123Y189386D01*
X158133Y189379D01*
X158151Y189357D01*
X159928Y187581D01*
X159994Y187529D01*
X160055Y187470D01*
X160120Y187432D01*
X160179Y187386D01*
X160257Y187353D01*
X160330Y187310D01*
X160402Y187290D01*
X160471Y187260D01*
X160554Y187247D01*
X160636Y187224D01*
X160711Y187222D01*
X160785Y187210D01*
X160869Y187218D01*
X160954Y187216D01*
X161027Y187233D01*
X161102Y187240D01*
X161181Y187268D01*
X161263Y187287D01*
X161330Y187322D01*
X161401Y187347D01*
X161471Y187395D01*
X161546Y187434D01*
X161602Y187484D01*
X161664Y187526D01*
X161707Y187575D01*
X161710Y187577D01*
X161720Y187590D01*
X161783Y187646D01*
X161869Y187758D01*
X161875Y187764D01*
X161876Y187768D01*
X161881Y187774D01*
X162390Y188536D01*
X163064Y189210D01*
X163857Y189740D01*
X164738Y190105D01*
X165673Y190291D01*
X166151Y190291D01*
X166151Y184130D01*
X166166Y184012D01*
X166173Y183893D01*
X166185Y183855D01*
X166191Y183815D01*
X166234Y183704D01*
X166271Y183591D01*
X166293Y183557D01*
X166308Y183519D01*
X166377Y183423D01*
X166441Y183322D01*
X166471Y183294D01*
X166494Y183262D01*
X166586Y183186D01*
X166673Y183104D01*
X166687Y183096D01*
X166612Y183049D01*
X166584Y183019D01*
X166551Y182995D01*
X166475Y182904D01*
X166394Y182817D01*
X166374Y182782D01*
X166349Y182750D01*
X166298Y182643D01*
X166240Y182538D01*
X166230Y182499D01*
X166213Y182463D01*
X166191Y182346D01*
X166161Y182230D01*
X166157Y182170D01*
X166153Y182150D01*
X166155Y182130D01*
X166151Y182070D01*
X166151Y175909D01*
X165673Y175909D01*
X164738Y176095D01*
X163857Y176460D01*
X163064Y176990D01*
X162390Y177664D01*
X161881Y178426D01*
X161825Y178490D01*
X161778Y178560D01*
X161722Y178610D01*
X161672Y178667D01*
X161603Y178715D01*
X161539Y178771D01*
X161473Y178805D01*
X161411Y178848D01*
X161331Y178877D01*
X161256Y178915D01*
X161183Y178932D01*
X161112Y178958D01*
X161028Y178966D01*
X160946Y178985D01*
X160871Y178983D01*
X160796Y178990D01*
X160713Y178978D01*
X160628Y178975D01*
X160556Y178954D01*
X160481Y178943D01*
X160404Y178910D01*
X160323Y178887D01*
X160258Y178849D01*
X160189Y178819D01*
X160121Y178768D01*
X160049Y178725D01*
X159943Y178632D01*
X159936Y178627D01*
X159933Y178624D01*
X159928Y178619D01*
X158234Y176925D01*
X150466Y176925D01*
X148093Y179299D01*
X148014Y179359D01*
X147942Y179427D01*
X147889Y179456D01*
X147841Y179493D01*
X147750Y179533D01*
X147664Y179581D01*
X147605Y179596D01*
X147549Y179620D01*
X147451Y179635D01*
X147356Y179660D01*
X147256Y179666D01*
X147235Y179670D01*
X147223Y179668D01*
X147195Y179670D01*
X121046Y179670D01*
X120948Y179658D01*
X120849Y179655D01*
X120791Y179638D01*
X120731Y179630D01*
X120639Y179594D01*
X120544Y179566D01*
X120491Y179536D01*
X120435Y179513D01*
X120355Y179455D01*
X120270Y179405D01*
X120194Y179339D01*
X120178Y179327D01*
X120170Y179317D01*
X120149Y179299D01*
X110801Y169951D01*
X110741Y169873D01*
X110673Y169801D01*
X110644Y169748D01*
X110607Y169700D01*
X110567Y169609D01*
X110519Y169522D01*
X110504Y169464D01*
X110480Y169408D01*
X110465Y169310D01*
X110440Y169214D01*
X110434Y169114D01*
X110430Y169094D01*
X110432Y169082D01*
X110430Y169054D01*
X110430Y146946D01*
X110442Y146848D01*
X110445Y146749D01*
X110462Y146691D01*
X110470Y146631D01*
X110506Y146539D01*
X110534Y146444D01*
X110564Y146391D01*
X110587Y146335D01*
X110645Y146255D01*
X110695Y146170D01*
X110761Y146094D01*
X110773Y146078D01*
X110783Y146070D01*
X110801Y146049D01*
X115145Y141706D01*
X115254Y141621D01*
X115361Y141532D01*
X115380Y141523D01*
X115396Y141511D01*
X115524Y141455D01*
X115649Y141396D01*
X115669Y141393D01*
X115688Y141385D01*
X115826Y141363D01*
X115962Y141337D01*
X115982Y141338D01*
X116002Y141335D01*
X116141Y141348D01*
X116279Y141356D01*
X116298Y141363D01*
X116318Y141365D01*
X116450Y141412D01*
X116581Y141454D01*
X116599Y141465D01*
X116618Y141472D01*
X116733Y141550D01*
X116850Y141625D01*
X116864Y141639D01*
X116881Y141651D01*
X116973Y141755D01*
X117068Y141856D01*
X117078Y141874D01*
X117091Y141889D01*
X117154Y142013D01*
X117222Y142135D01*
X117227Y142154D01*
X117236Y142172D01*
X117266Y142308D01*
X117301Y142443D01*
X117303Y142471D01*
X117306Y142483D01*
X117305Y142503D01*
X117311Y142603D01*
X117311Y142728D01*
X118204Y143621D01*
X141820Y143621D01*
X142713Y142728D01*
X142713Y141334D01*
X142728Y141216D01*
X142735Y141097D01*
X142748Y141059D01*
X142753Y141018D01*
X142796Y140908D01*
X142833Y140795D01*
X142855Y140760D01*
X142870Y140723D01*
X142939Y140627D01*
X143003Y140526D01*
X143033Y140498D01*
X143056Y140465D01*
X143148Y140389D01*
X143235Y140308D01*
X143270Y140288D01*
X143301Y140263D01*
X143409Y140212D01*
X143513Y140154D01*
X143553Y140144D01*
X143589Y140127D01*
X143706Y140105D01*
X143821Y140075D01*
X143881Y140071D01*
X143901Y140067D01*
X143922Y140069D01*
X143982Y140065D01*
X176196Y140065D01*
X176314Y140080D01*
X176433Y140087D01*
X176471Y140100D01*
X176512Y140105D01*
X176622Y140148D01*
X176735Y140185D01*
X176770Y140207D01*
X176807Y140222D01*
X176903Y140291D01*
X177004Y140355D01*
X177032Y140385D01*
X177065Y140408D01*
X177141Y140500D01*
X177222Y140587D01*
X177242Y140622D01*
X177267Y140653D01*
X177318Y140761D01*
X177376Y140865D01*
X177386Y140905D01*
X177403Y140941D01*
X177425Y141058D01*
X177455Y141173D01*
X177459Y141233D01*
X177463Y141253D01*
X177461Y141274D01*
X177465Y141334D01*
X177465Y154632D01*
X178358Y155525D01*
X205622Y155525D01*
X206515Y154632D01*
X206515Y117368D01*
X205622Y116475D01*
X178358Y116475D01*
X177465Y117368D01*
X177465Y130666D01*
X177450Y130784D01*
X177443Y130903D01*
X177430Y130941D01*
X177425Y130982D01*
X177382Y131092D01*
X177345Y131205D01*
X177323Y131240D01*
X177308Y131277D01*
X177239Y131373D01*
X177175Y131474D01*
X177145Y131502D01*
X177122Y131535D01*
X177030Y131611D01*
X176943Y131692D01*
X176908Y131712D01*
X176877Y131737D01*
X176769Y131788D01*
X176665Y131846D01*
X176625Y131856D01*
X176589Y131873D01*
X176472Y131895D01*
X176357Y131925D01*
X176297Y131929D01*
X176277Y131933D01*
X176256Y131931D01*
X176196Y131935D01*
X143982Y131935D01*
X143864Y131920D01*
X143745Y131913D01*
X143707Y131900D01*
X143666Y131895D01*
X143556Y131852D01*
X143443Y131815D01*
X143408Y131793D01*
X143371Y131778D01*
X143275Y131709D01*
X143174Y131645D01*
X143146Y131615D01*
X143113Y131592D01*
X143037Y131500D01*
X142956Y131413D01*
X142936Y131378D01*
X142911Y131347D01*
X142860Y131239D01*
X142802Y131135D01*
X142792Y131095D01*
X142775Y131059D01*
X142753Y130942D01*
X142723Y130827D01*
X142719Y130767D01*
X142715Y130747D01*
X142717Y130726D01*
X142713Y130666D01*
X142713Y129272D01*
X141820Y128379D01*
X118204Y128379D01*
X117311Y129272D01*
X117311Y131301D01*
X117296Y131419D01*
X117289Y131538D01*
X117276Y131576D01*
X117271Y131617D01*
X117228Y131727D01*
X117191Y131840D01*
X117169Y131875D01*
X117154Y131912D01*
X117085Y132008D01*
X117021Y132109D01*
X116991Y132137D01*
X116968Y132170D01*
X116876Y132246D01*
X116789Y132327D01*
X116754Y132347D01*
X116723Y132372D01*
X116615Y132423D01*
X116511Y132481D01*
X116471Y132491D01*
X116435Y132508D01*
X116318Y132530D01*
X116203Y132560D01*
X116143Y132564D01*
X116123Y132568D01*
X116102Y132566D01*
X116042Y132570D01*
X114579Y132570D01*
X103570Y143579D01*
X103570Y172421D01*
X117942Y186793D01*
X118027Y186902D01*
X118116Y187009D01*
X118125Y187028D01*
X118137Y187044D01*
X118193Y187172D01*
X118252Y187297D01*
X118255Y187317D01*
X118263Y187336D01*
X118285Y187474D01*
X118311Y187610D01*
X118310Y187630D01*
X118313Y187650D01*
X118300Y187789D01*
X118292Y187927D01*
X118285Y187946D01*
X118283Y187966D01*
X118236Y188097D01*
X118194Y188229D01*
X118183Y188247D01*
X118176Y188266D01*
X118098Y188381D01*
X118023Y188498D01*
X118009Y188512D01*
X117997Y188529D01*
X117893Y188621D01*
X117792Y188716D01*
X117774Y188726D01*
X117759Y188739D01*
X117635Y188802D01*
X117513Y188870D01*
X117494Y188875D01*
X117476Y188884D01*
X117340Y188914D01*
X117205Y188949D01*
X117177Y188951D01*
X117165Y188954D01*
X117145Y188953D01*
X117045Y188959D01*
X111769Y188959D01*
X111769Y197731D01*
X127965Y197731D01*
X127793Y196649D01*
X127305Y195146D01*
X126588Y193738D01*
X125659Y192459D01*
X124541Y191341D01*
X123262Y190412D01*
X121854Y189695D01*
X120351Y189207D01*
X119379Y189053D01*
X119322Y189036D01*
X119262Y189028D01*
X119170Y188992D01*
X119074Y188964D01*
X119022Y188933D01*
X118967Y188911D01*
X118886Y188853D01*
X118800Y188802D01*
X118758Y188760D01*
X118709Y188725D01*
X118646Y188648D01*
X118575Y188577D01*
X118545Y188526D01*
X118507Y188480D01*
X118464Y188389D01*
X118413Y188304D01*
X118397Y188246D01*
X118371Y188192D01*
X118352Y188094D01*
X118324Y187998D01*
X118323Y187938D01*
X118311Y187879D01*
X118317Y187780D01*
X118314Y187680D01*
X118327Y187622D01*
X118331Y187562D01*
X118362Y187467D01*
X118383Y187370D01*
X118411Y187317D01*
X118429Y187260D01*
X118482Y187175D01*
X118528Y187086D01*
X118567Y187042D01*
X118599Y186991D01*
X118672Y186923D01*
X118738Y186848D01*
X118787Y186814D01*
X118831Y186773D01*
X118918Y186725D01*
X119001Y186669D01*
X119057Y186648D01*
X119109Y186619D01*
X119206Y186595D01*
X119300Y186561D01*
X119359Y186555D01*
X119417Y186540D01*
X119578Y186530D01*
X147195Y186530D01*
X147293Y186542D01*
X147392Y186545D01*
X147450Y186562D01*
X147511Y186570D01*
X147603Y186606D01*
X147698Y186634D01*
X147750Y186664D01*
X147806Y186687D01*
X147886Y186745D01*
X147972Y186795D01*
X148047Y186861D01*
X148064Y186873D01*
X148071Y186883D01*
X148093Y186901D01*
X150549Y189357D01*
X150609Y189436D01*
X150677Y189508D01*
X150706Y189561D01*
X150743Y189609D01*
X150783Y189700D01*
X150831Y189786D01*
X150846Y189845D01*
X150870Y189901D01*
X150885Y189999D01*
X150910Y190094D01*
X150916Y190194D01*
X150920Y190215D01*
X150918Y190227D01*
X150920Y190255D01*
X150920Y201771D01*
X182199Y233049D01*
X182259Y233127D01*
X182327Y233199D01*
X182356Y233252D01*
X182393Y233300D01*
X182433Y233391D01*
X182481Y233478D01*
X182496Y233536D01*
X182520Y233592D01*
X182535Y233690D01*
X182560Y233786D01*
X182566Y233886D01*
X182570Y233906D01*
X182568Y233918D01*
X182570Y233946D01*
X182570Y242272D01*
X182553Y242410D01*
X182540Y242548D01*
X182533Y242568D01*
X182530Y242588D01*
X182479Y242717D01*
X182432Y242848D01*
X182421Y242865D01*
X182413Y242883D01*
X182332Y242996D01*
X182254Y243111D01*
X182238Y243124D01*
X182227Y243141D01*
X182119Y243230D01*
X182015Y243321D01*
X181997Y243331D01*
X181982Y243343D01*
X181856Y243403D01*
X181732Y243466D01*
X181712Y243470D01*
X181694Y243479D01*
X181558Y243505D01*
X181422Y243536D01*
X181401Y243535D01*
X181382Y243539D01*
X181243Y243530D01*
X181104Y243526D01*
X181084Y243520D01*
X181064Y243519D01*
X180932Y243476D01*
X180798Y243438D01*
X180781Y243427D01*
X180762Y243421D01*
X180644Y243347D01*
X180524Y243276D01*
X180503Y243257D01*
X180493Y243251D01*
X180479Y243236D01*
X180404Y243170D01*
X175839Y238605D01*
X175765Y238510D01*
X175687Y238421D01*
X175668Y238385D01*
X175644Y238353D01*
X175596Y238244D01*
X175542Y238138D01*
X175533Y238099D01*
X175517Y238061D01*
X175499Y237944D01*
X175473Y237828D01*
X175474Y237787D01*
X175467Y237747D01*
X175479Y237629D01*
X175482Y237510D01*
X175493Y237471D01*
X175497Y237431D01*
X175537Y237319D01*
X175571Y237204D01*
X175591Y237170D01*
X175605Y237131D01*
X175672Y237033D01*
X175732Y236930D01*
X175772Y236885D01*
X175783Y236868D01*
X175799Y236855D01*
X175839Y236810D01*
X176287Y236361D01*
X176287Y233639D01*
X174361Y231713D01*
X171639Y231713D01*
X169713Y233639D01*
X169713Y236361D01*
X170342Y236990D01*
X170402Y237068D01*
X170470Y237140D01*
X170499Y237193D01*
X170536Y237241D01*
X170576Y237332D01*
X170624Y237419D01*
X170639Y237477D01*
X170663Y237533D01*
X170678Y237631D01*
X170703Y237726D01*
X170709Y237827D01*
X170713Y237847D01*
X170711Y237859D01*
X170713Y237887D01*
X170713Y239947D01*
X175342Y244575D01*
X175402Y244654D01*
X175470Y244726D01*
X175499Y244779D01*
X175536Y244827D01*
X175576Y244918D01*
X175624Y245004D01*
X175639Y245063D01*
X175663Y245119D01*
X175678Y245217D01*
X175703Y245312D01*
X175709Y245412D01*
X175713Y245433D01*
X175711Y245445D01*
X175713Y245473D01*
X175713Y248056D01*
X175696Y248194D01*
X175683Y248332D01*
X175676Y248351D01*
X175673Y248371D01*
X175622Y248501D01*
X175575Y248632D01*
X175564Y248648D01*
X175556Y248667D01*
X175475Y248779D01*
X175397Y248895D01*
X175381Y248908D01*
X175370Y248924D01*
X175262Y249013D01*
X175158Y249105D01*
X175140Y249114D01*
X175125Y249127D01*
X174999Y249187D01*
X174875Y249250D01*
X174855Y249254D01*
X174837Y249263D01*
X174701Y249289D01*
X174564Y249319D01*
X174544Y249319D01*
X174525Y249323D01*
X174386Y249314D01*
X174247Y249310D01*
X174227Y249304D01*
X174207Y249303D01*
X174075Y249260D01*
X173941Y249221D01*
X173924Y249211D01*
X173905Y249205D01*
X173787Y249131D01*
X173667Y249060D01*
X173646Y249041D01*
X173636Y249035D01*
X173622Y249020D01*
X173565Y248970D01*
X172981Y248632D01*
X172334Y248459D01*
X171269Y248459D01*
X171269Y266000D01*
X171269Y283541D01*
X172334Y283541D01*
X172981Y283368D01*
X173560Y283033D01*
X173821Y282772D01*
X173909Y282704D01*
X173945Y282670D01*
X173953Y282665D01*
X174004Y282620D01*
X174040Y282602D01*
X174072Y282577D01*
X174182Y282530D01*
X174288Y282476D01*
X174327Y282467D01*
X174364Y282451D01*
X174482Y282432D01*
X174598Y282406D01*
X174638Y282407D01*
X174678Y282401D01*
X174797Y282412D01*
X174916Y282416D01*
X174955Y282427D01*
X174995Y282431D01*
X175107Y282471D01*
X175221Y282504D01*
X175256Y282525D01*
X180731Y282525D01*
X180783Y282503D01*
X180908Y282443D01*
X180928Y282440D01*
X180947Y282432D01*
X181084Y282410D01*
X181221Y282384D01*
X181241Y282385D01*
X181261Y282382D01*
X181399Y282395D01*
X181538Y282403D01*
X181557Y282410D01*
X181577Y282411D01*
X181709Y282459D01*
X181840Y282501D01*
X181857Y282512D01*
X181877Y282519D01*
X181991Y282597D01*
X182109Y282672D01*
X182123Y282686D01*
X182140Y282698D01*
X182231Y282801D01*
X182327Y282903D01*
X182337Y282921D01*
X182350Y282936D01*
X182413Y283060D01*
X182481Y283182D01*
X182486Y283201D01*
X182495Y283219D01*
X182525Y283355D01*
X182560Y283490D01*
X182562Y283517D01*
X182565Y283529D01*
X182564Y283550D01*
X182570Y283650D01*
X182570Y291054D01*
X182558Y291152D01*
X182555Y291251D01*
X182538Y291309D01*
X182530Y291369D01*
X182494Y291461D01*
X182466Y291556D01*
X182436Y291609D01*
X182413Y291665D01*
X182355Y291745D01*
X182305Y291830D01*
X182239Y291906D01*
X182227Y291922D01*
X182217Y291930D01*
X182199Y291951D01*
X173951Y300199D01*
X173873Y300259D01*
X173801Y300327D01*
X173748Y300356D01*
X173700Y300393D01*
X173609Y300433D01*
X173522Y300481D01*
X173464Y300496D01*
X173408Y300520D01*
X173310Y300535D01*
X173214Y300560D01*
X173114Y300566D01*
X173094Y300570D01*
X173082Y300568D01*
X173054Y300570D01*
X47946Y300570D01*
X47848Y300558D01*
X47749Y300555D01*
X47691Y300538D01*
X47631Y300530D01*
X47539Y300494D01*
X47444Y300466D01*
X47391Y300436D01*
X47335Y300413D01*
X47255Y300355D01*
X47170Y300305D01*
X47094Y300239D01*
X47078Y300227D01*
X47070Y300217D01*
X47049Y300199D01*
X40801Y293951D01*
X40741Y293873D01*
X40673Y293801D01*
X40644Y293748D01*
X40607Y293700D01*
X40567Y293609D01*
X40519Y293522D01*
X40504Y293464D01*
X40480Y293408D01*
X40465Y293310D01*
X40440Y293214D01*
X40434Y293114D01*
X40430Y293094D01*
X40432Y293082D01*
X40430Y293054D01*
X40430Y283650D01*
X40447Y283513D01*
X40452Y283463D01*
X40452Y283459D01*
X40460Y283374D01*
X40467Y283355D01*
X40470Y283335D01*
X40521Y283206D01*
X40568Y283075D01*
X40579Y283058D01*
X40587Y283039D01*
X40668Y282927D01*
X40746Y282811D01*
X40762Y282798D01*
X40773Y282782D01*
X40881Y282693D01*
X40985Y282601D01*
X41003Y282592D01*
X41018Y282579D01*
X41144Y282520D01*
X41268Y282456D01*
X41288Y282452D01*
X41306Y282443D01*
X41442Y282417D01*
X41578Y282387D01*
X41599Y282387D01*
X41618Y282384D01*
X41757Y282392D01*
X41896Y282396D01*
X41916Y282402D01*
X41936Y282403D01*
X42068Y282446D01*
X42202Y282485D01*
X42219Y282495D01*
X42238Y282501D01*
X42275Y282525D01*
X47632Y282525D01*
X48103Y282054D01*
X48197Y281981D01*
X48286Y281902D01*
X48322Y281884D01*
X48354Y281859D01*
X48463Y281811D01*
X48569Y281757D01*
X48608Y281749D01*
X48646Y281733D01*
X48763Y281714D01*
X48879Y281688D01*
X48920Y281689D01*
X48960Y281683D01*
X49078Y281694D01*
X49197Y281697D01*
X49236Y281709D01*
X49276Y281712D01*
X49388Y281753D01*
X49503Y281786D01*
X49538Y281806D01*
X49576Y281820D01*
X49674Y281887D01*
X49777Y281947D01*
X49822Y281987D01*
X49839Y281999D01*
X49852Y282014D01*
X49898Y282054D01*
X50368Y282525D01*
X55632Y282525D01*
X56103Y282054D01*
X56197Y281981D01*
X56286Y281902D01*
X56322Y281884D01*
X56354Y281859D01*
X56463Y281811D01*
X56569Y281757D01*
X56608Y281749D01*
X56646Y281733D01*
X56763Y281714D01*
X56879Y281688D01*
X56920Y281689D01*
X56960Y281683D01*
X57078Y281694D01*
X57197Y281697D01*
X57236Y281709D01*
X57276Y281712D01*
X57388Y281753D01*
X57503Y281786D01*
X57538Y281806D01*
X57576Y281820D01*
X57674Y281887D01*
X57777Y281947D01*
X57822Y281987D01*
X57839Y281999D01*
X57852Y282014D01*
X57898Y282054D01*
X58368Y282525D01*
X63632Y282525D01*
X64103Y282054D01*
X64197Y281981D01*
X64286Y281902D01*
X64322Y281884D01*
X64354Y281859D01*
X64463Y281811D01*
X64569Y281757D01*
X64608Y281749D01*
X64646Y281733D01*
X64763Y281714D01*
X64879Y281688D01*
X64920Y281689D01*
X64960Y281683D01*
X65078Y281694D01*
X65197Y281697D01*
X65236Y281709D01*
X65276Y281712D01*
X65388Y281753D01*
X65503Y281786D01*
X65538Y281806D01*
X65576Y281820D01*
X65674Y281887D01*
X65777Y281947D01*
X65822Y281987D01*
X65839Y281999D01*
X65852Y282014D01*
X65898Y282054D01*
X66368Y282525D01*
X71632Y282525D01*
X72103Y282054D01*
X72197Y281981D01*
X72286Y281902D01*
X72322Y281884D01*
X72354Y281859D01*
X72463Y281811D01*
X72569Y281757D01*
X72608Y281749D01*
X72646Y281733D01*
X72763Y281714D01*
X72879Y281688D01*
X72920Y281689D01*
X72960Y281683D01*
X73078Y281694D01*
X73197Y281697D01*
X73236Y281709D01*
X73276Y281712D01*
X73388Y281753D01*
X73503Y281786D01*
X73538Y281806D01*
X73576Y281820D01*
X73674Y281887D01*
X73777Y281947D01*
X73822Y281987D01*
X73839Y281999D01*
X73852Y282014D01*
X73898Y282054D01*
X74368Y282525D01*
X79632Y282525D01*
X80525Y281632D01*
X80525Y250368D01*
X79659Y249502D01*
X79598Y249424D01*
X79530Y249352D01*
X79501Y249299D01*
X79464Y249251D01*
X79424Y249160D01*
X79376Y249073D01*
X79361Y249015D01*
X79337Y248959D01*
X79322Y248861D01*
X79297Y248765D01*
X79291Y248665D01*
X79287Y248645D01*
X79289Y248633D01*
X79287Y248605D01*
X79287Y242887D01*
X79299Y242789D01*
X79302Y242690D01*
X79319Y242632D01*
X79327Y242572D01*
X79363Y242480D01*
X79391Y242384D01*
X79421Y242332D01*
X79444Y242276D01*
X79502Y242196D01*
X79552Y242110D01*
X79618Y242035D01*
X79630Y242019D01*
X79640Y242011D01*
X79659Y241990D01*
X80287Y241361D01*
X80287Y238639D01*
X78361Y236713D01*
X75639Y236713D01*
X73453Y238898D01*
X73344Y238984D01*
X73237Y239072D01*
X73218Y239081D01*
X73202Y239093D01*
X73074Y239149D01*
X72949Y239208D01*
X72929Y239212D01*
X72910Y239220D01*
X72772Y239242D01*
X72636Y239268D01*
X72616Y239266D01*
X72596Y239270D01*
X72457Y239256D01*
X72319Y239248D01*
X72300Y239242D01*
X72280Y239240D01*
X72148Y239193D01*
X72017Y239150D01*
X71999Y239139D01*
X71980Y239132D01*
X71865Y239054D01*
X71748Y238980D01*
X71734Y238965D01*
X71717Y238954D01*
X71625Y238849D01*
X71530Y238748D01*
X71520Y238730D01*
X71507Y238715D01*
X71443Y238591D01*
X71376Y238470D01*
X71371Y238450D01*
X71362Y238432D01*
X71332Y238296D01*
X71297Y238162D01*
X71295Y238134D01*
X71292Y238122D01*
X71293Y238101D01*
X71287Y238001D01*
X71287Y234887D01*
X71299Y234789D01*
X71302Y234690D01*
X71319Y234632D01*
X71327Y234572D01*
X71363Y234480D01*
X71391Y234384D01*
X71421Y234332D01*
X71444Y234276D01*
X71502Y234196D01*
X71552Y234111D01*
X71618Y234035D01*
X71630Y234019D01*
X71640Y234011D01*
X71658Y233990D01*
X72287Y233361D01*
X72287Y230639D01*
X70361Y228713D01*
X67639Y228713D01*
X65713Y230639D01*
X65713Y233361D01*
X66342Y233990D01*
X66402Y234068D01*
X66470Y234140D01*
X66499Y234193D01*
X66536Y234241D01*
X66576Y234332D01*
X66624Y234419D01*
X66639Y234477D01*
X66663Y234533D01*
X66678Y234631D01*
X66703Y234726D01*
X66709Y234827D01*
X66713Y234847D01*
X66711Y234859D01*
X66713Y234887D01*
X66713Y238001D01*
X66696Y238138D01*
X66683Y238277D01*
X66676Y238296D01*
X66673Y238316D01*
X66622Y238445D01*
X66575Y238577D01*
X66564Y238593D01*
X66556Y238612D01*
X66475Y238725D01*
X66397Y238840D01*
X66381Y238853D01*
X66370Y238869D01*
X66262Y238958D01*
X66158Y239050D01*
X66140Y239059D01*
X66125Y239072D01*
X65999Y239132D01*
X65875Y239195D01*
X65855Y239199D01*
X65837Y239208D01*
X65701Y239234D01*
X65565Y239264D01*
X65544Y239264D01*
X65525Y239268D01*
X65386Y239259D01*
X65247Y239255D01*
X65227Y239249D01*
X65207Y239248D01*
X65075Y239205D01*
X64941Y239166D01*
X64924Y239156D01*
X64905Y239150D01*
X64787Y239075D01*
X64667Y239005D01*
X64646Y238986D01*
X64636Y238980D01*
X64622Y238965D01*
X64547Y238898D01*
X62361Y236713D01*
X59639Y236713D01*
X57453Y238898D01*
X57344Y238984D01*
X57237Y239072D01*
X57218Y239081D01*
X57202Y239093D01*
X57074Y239149D01*
X56949Y239208D01*
X56929Y239212D01*
X56910Y239220D01*
X56772Y239242D01*
X56636Y239268D01*
X56616Y239266D01*
X56596Y239270D01*
X56457Y239256D01*
X56319Y239248D01*
X56300Y239242D01*
X56280Y239240D01*
X56148Y239193D01*
X56017Y239150D01*
X55999Y239139D01*
X55980Y239132D01*
X55865Y239054D01*
X55748Y238980D01*
X55734Y238965D01*
X55717Y238954D01*
X55625Y238849D01*
X55530Y238748D01*
X55520Y238730D01*
X55507Y238715D01*
X55443Y238591D01*
X55376Y238470D01*
X55371Y238450D01*
X55362Y238432D01*
X55332Y238296D01*
X55297Y238162D01*
X55295Y238134D01*
X55292Y238122D01*
X55293Y238101D01*
X55287Y238001D01*
X55287Y219473D01*
X55299Y219375D01*
X55302Y219276D01*
X55319Y219218D01*
X55327Y219157D01*
X55363Y219065D01*
X55391Y218970D01*
X55421Y218918D01*
X55444Y218862D01*
X55502Y218782D01*
X55552Y218696D01*
X55618Y218621D01*
X55630Y218604D01*
X55640Y218597D01*
X55658Y218575D01*
X96287Y177947D01*
X96287Y134803D01*
X88197Y126713D01*
X86794Y126713D01*
X86676Y126698D01*
X86557Y126691D01*
X86519Y126678D01*
X86478Y126673D01*
X86368Y126630D01*
X86255Y126593D01*
X86220Y126571D01*
X86183Y126556D01*
X86087Y126487D01*
X85986Y126423D01*
X85958Y126393D01*
X85925Y126370D01*
X85849Y126278D01*
X85768Y126191D01*
X85748Y126156D01*
X85723Y126125D01*
X85672Y126017D01*
X85614Y125913D01*
X85604Y125873D01*
X85587Y125837D01*
X85565Y125720D01*
X85535Y125605D01*
X85531Y125545D01*
X85527Y125525D01*
X85529Y125504D01*
X85525Y125444D01*
X85525Y125368D01*
X85054Y124897D01*
X84981Y124803D01*
X84902Y124714D01*
X84884Y124678D01*
X84859Y124646D01*
X84812Y124537D01*
X84757Y124431D01*
X84749Y124392D01*
X84733Y124354D01*
X84714Y124237D01*
X84688Y124121D01*
X84689Y124080D01*
X84683Y124040D01*
X84694Y123922D01*
X84697Y123803D01*
X84709Y123764D01*
X84712Y123724D01*
X84753Y123611D01*
X84786Y123497D01*
X84806Y123462D01*
X84820Y123424D01*
X84887Y123326D01*
X84947Y123223D01*
X84987Y123178D01*
X84999Y123161D01*
X85014Y123148D01*
X85054Y123102D01*
X85355Y122801D01*
X85433Y122741D01*
X85505Y122673D01*
X85558Y122644D01*
X85606Y122607D01*
X85697Y122567D01*
X85784Y122519D01*
X85842Y122504D01*
X85898Y122480D01*
X85996Y122465D01*
X86092Y122440D01*
X86192Y122434D01*
X86212Y122430D01*
X86224Y122432D01*
X86252Y122430D01*
X106421Y122430D01*
X112163Y116687D01*
X112241Y116627D01*
X112313Y116559D01*
X112366Y116530D01*
X112414Y116493D01*
X112505Y116453D01*
X112592Y116405D01*
X112650Y116390D01*
X112706Y116366D01*
X112804Y116351D01*
X112900Y116326D01*
X113000Y116320D01*
X113020Y116316D01*
X113032Y116318D01*
X113060Y116316D01*
X116042Y116316D01*
X116160Y116331D01*
X116279Y116338D01*
X116317Y116351D01*
X116358Y116356D01*
X116468Y116399D01*
X116581Y116436D01*
X116616Y116458D01*
X116653Y116473D01*
X116749Y116542D01*
X116850Y116606D01*
X116878Y116636D01*
X116911Y116659D01*
X116987Y116751D01*
X117068Y116838D01*
X117088Y116873D01*
X117113Y116904D01*
X117164Y117012D01*
X117222Y117116D01*
X117232Y117156D01*
X117249Y117192D01*
X117271Y117309D01*
X117301Y117424D01*
X117305Y117484D01*
X117309Y117504D01*
X117307Y117525D01*
X117311Y117585D01*
X117311Y119614D01*
X118204Y120507D01*
X141820Y120507D01*
X142713Y119614D01*
X142713Y106158D01*
X141820Y105265D01*
X137699Y105265D01*
X137581Y105250D01*
X137462Y105243D01*
X137424Y105230D01*
X137383Y105225D01*
X137273Y105182D01*
X137160Y105145D01*
X137125Y105123D01*
X137088Y105108D01*
X136992Y105039D01*
X136891Y104975D01*
X136863Y104945D01*
X136830Y104922D01*
X136754Y104830D01*
X136673Y104743D01*
X136653Y104708D01*
X136628Y104677D01*
X136577Y104569D01*
X136519Y104465D01*
X136509Y104425D01*
X136492Y104389D01*
X136470Y104272D01*
X136440Y104157D01*
X136436Y104097D01*
X136432Y104077D01*
X136434Y104056D01*
X136430Y103996D01*
X136430Y98946D01*
X136442Y98848D01*
X136445Y98749D01*
X136462Y98691D01*
X136470Y98631D01*
X136506Y98539D01*
X136534Y98444D01*
X136564Y98391D01*
X136587Y98335D01*
X136645Y98255D01*
X136695Y98170D01*
X136761Y98094D01*
X136773Y98078D01*
X136783Y98070D01*
X136801Y98049D01*
X141949Y92901D01*
X142027Y92841D01*
X142099Y92773D01*
X142152Y92744D01*
X142200Y92707D01*
X142291Y92667D01*
X142378Y92619D01*
X142436Y92604D01*
X142492Y92580D01*
X142590Y92565D01*
X142686Y92540D01*
X142786Y92534D01*
X142806Y92530D01*
X142818Y92532D01*
X142846Y92530D01*
X147695Y92530D01*
X147793Y92542D01*
X147892Y92545D01*
X147950Y92562D01*
X148011Y92570D01*
X148103Y92606D01*
X148198Y92634D01*
X148250Y92664D01*
X148306Y92687D01*
X148386Y92745D01*
X148472Y92795D01*
X148547Y92861D01*
X148564Y92873D01*
X148571Y92883D01*
X148592Y92901D01*
X150966Y95275D01*
X158734Y95275D01*
X160428Y93581D01*
X160495Y93529D01*
X160555Y93470D01*
X160620Y93432D01*
X160679Y93386D01*
X160757Y93353D01*
X160830Y93310D01*
X160902Y93290D01*
X160971Y93260D01*
X161054Y93247D01*
X161136Y93224D01*
X161211Y93222D01*
X161285Y93210D01*
X161369Y93218D01*
X161453Y93216D01*
X161527Y93233D01*
X161602Y93240D01*
X161681Y93269D01*
X161763Y93287D01*
X161830Y93322D01*
X161901Y93347D01*
X161971Y93395D01*
X162046Y93434D01*
X162102Y93484D01*
X162164Y93526D01*
X162220Y93589D01*
X162283Y93646D01*
X162369Y93758D01*
X162375Y93765D01*
X162376Y93768D01*
X162381Y93774D01*
X162890Y94536D01*
X163564Y95210D01*
X164357Y95740D01*
X165238Y96105D01*
X166173Y96291D01*
X166651Y96291D01*
X166651Y90130D01*
X166666Y90012D01*
X166673Y89893D01*
X166685Y89855D01*
X166691Y89815D01*
X166734Y89704D01*
X166771Y89591D01*
X166793Y89557D01*
X166808Y89519D01*
X166877Y89423D01*
X166941Y89322D01*
X166971Y89294D01*
X166994Y89262D01*
X167086Y89186D01*
X167173Y89104D01*
X167187Y89096D01*
X167112Y89049D01*
X167084Y89019D01*
X167051Y88995D01*
X166975Y88904D01*
X166894Y88817D01*
X166874Y88782D01*
X166849Y88750D01*
X166798Y88643D01*
X166740Y88538D01*
X166730Y88499D01*
X166713Y88463D01*
X166691Y88346D01*
X166661Y88230D01*
X166657Y88170D01*
X166653Y88150D01*
X166655Y88130D01*
X166651Y88070D01*
X166651Y81909D01*
X166173Y81909D01*
X165238Y82095D01*
X164357Y82460D01*
X163564Y82990D01*
X162890Y83664D01*
X162381Y84426D01*
X162325Y84490D01*
X162278Y84560D01*
X162222Y84610D01*
X162172Y84667D01*
X162103Y84715D01*
X162039Y84771D01*
X161972Y84805D01*
X161911Y84848D01*
X161831Y84877D01*
X161756Y84915D01*
X161683Y84932D01*
X161612Y84958D01*
X161528Y84966D01*
X161446Y84985D01*
X161371Y84983D01*
X161296Y84990D01*
X161213Y84978D01*
X161128Y84975D01*
X161056Y84954D01*
X160981Y84943D01*
X160904Y84910D01*
X160823Y84887D01*
X160758Y84849D01*
X160689Y84819D01*
X160621Y84768D01*
X160549Y84725D01*
X160443Y84632D01*
X160436Y84626D01*
X160433Y84624D01*
X160428Y84619D01*
X158734Y82925D01*
X150966Y82925D01*
X148592Y85299D01*
X148514Y85359D01*
X148442Y85427D01*
X148389Y85456D01*
X148341Y85493D01*
X148250Y85533D01*
X148164Y85581D01*
X148105Y85596D01*
X148049Y85620D01*
X147951Y85635D01*
X147856Y85660D01*
X147756Y85666D01*
X147735Y85670D01*
X147723Y85668D01*
X147695Y85670D01*
X139479Y85670D01*
X137099Y88051D01*
X135453Y89696D01*
X135344Y89781D01*
X135237Y89870D01*
X135218Y89879D01*
X135202Y89891D01*
X135074Y89947D01*
X134949Y90006D01*
X134929Y90009D01*
X134910Y90017D01*
X134772Y90039D01*
X134636Y90065D01*
X134616Y90064D01*
X134596Y90067D01*
X134457Y90054D01*
X134319Y90046D01*
X134300Y90039D01*
X134280Y90037D01*
X134148Y89990D01*
X134017Y89948D01*
X133999Y89937D01*
X133980Y89930D01*
X133865Y89852D01*
X133748Y89777D01*
X133734Y89763D01*
X133717Y89751D01*
X133625Y89647D01*
X133530Y89546D01*
X133520Y89528D01*
X133507Y89513D01*
X133443Y89389D01*
X133376Y89267D01*
X133371Y89248D01*
X133362Y89230D01*
X133332Y89094D01*
X133297Y88959D01*
X133295Y88931D01*
X133292Y88919D01*
X133293Y88899D01*
X133287Y88799D01*
X133287Y85639D01*
X131361Y83713D01*
X130473Y83713D01*
X130375Y83701D01*
X130276Y83698D01*
X130217Y83681D01*
X130157Y83673D01*
X130066Y83637D01*
X129970Y83609D01*
X129918Y83579D01*
X129862Y83556D01*
X129782Y83498D01*
X129696Y83448D01*
X129621Y83382D01*
X129604Y83370D01*
X129597Y83360D01*
X129575Y83342D01*
X128687Y82453D01*
X128602Y82344D01*
X128514Y82237D01*
X128505Y82218D01*
X128492Y82202D01*
X128437Y82074D01*
X128378Y81949D01*
X128374Y81929D01*
X128366Y81910D01*
X128344Y81772D01*
X128318Y81636D01*
X128319Y81616D01*
X128316Y81596D01*
X128329Y81457D01*
X128338Y81319D01*
X128344Y81300D01*
X128346Y81280D01*
X128393Y81149D01*
X128436Y81017D01*
X128447Y80999D01*
X128454Y80980D01*
X128532Y80866D01*
X128606Y80748D01*
X128621Y80734D01*
X128632Y80717D01*
X128736Y80625D01*
X128838Y80530D01*
X128856Y80520D01*
X128871Y80507D01*
X128994Y80444D01*
X129116Y80376D01*
X129136Y80371D01*
X129154Y80362D01*
X129290Y80332D01*
X129424Y80297D01*
X129452Y80295D01*
X129464Y80292D01*
X129485Y80293D01*
X129585Y80287D01*
X131361Y80287D01*
X133287Y78361D01*
X133287Y75639D01*
X131102Y73453D01*
X131016Y73344D01*
X130928Y73237D01*
X130919Y73218D01*
X130907Y73202D01*
X130851Y73074D01*
X130792Y72949D01*
X130788Y72929D01*
X130780Y72910D01*
X130758Y72772D01*
X130732Y72636D01*
X130734Y72616D01*
X130730Y72596D01*
X130744Y72457D01*
X130752Y72319D01*
X130758Y72300D01*
X130760Y72280D01*
X130807Y72148D01*
X130850Y72017D01*
X130861Y71999D01*
X130868Y71980D01*
X130946Y71865D01*
X131020Y71748D01*
X131035Y71734D01*
X131046Y71717D01*
X131151Y71625D01*
X131252Y71530D01*
X131270Y71520D01*
X131285Y71507D01*
X131409Y71443D01*
X131530Y71376D01*
X131550Y71371D01*
X131568Y71362D01*
X131704Y71332D01*
X131838Y71297D01*
X131866Y71295D01*
X131878Y71292D01*
X131899Y71293D01*
X131999Y71287D01*
X147113Y71287D01*
X147211Y71299D01*
X147310Y71302D01*
X147368Y71319D01*
X147428Y71327D01*
X147520Y71363D01*
X147616Y71391D01*
X147668Y71421D01*
X147724Y71444D01*
X147804Y71502D01*
X147889Y71552D01*
X147965Y71618D01*
X147981Y71630D01*
X147989Y71640D01*
X148010Y71658D01*
X148639Y72287D01*
X151361Y72287D01*
X153287Y70361D01*
X153287Y67639D01*
X151361Y65713D01*
X148639Y65713D01*
X148010Y66342D01*
X147932Y66402D01*
X147860Y66470D01*
X147807Y66499D01*
X147759Y66536D01*
X147668Y66576D01*
X147581Y66624D01*
X147523Y66639D01*
X147467Y66663D01*
X147369Y66678D01*
X147274Y66703D01*
X147173Y66709D01*
X147153Y66713D01*
X147141Y66711D01*
X147113Y66713D01*
X89748Y66713D01*
X89650Y66701D01*
X89551Y66698D01*
X89493Y66681D01*
X89433Y66673D01*
X89341Y66637D01*
X89245Y66609D01*
X89193Y66579D01*
X89137Y66556D01*
X89057Y66498D01*
X88972Y66448D01*
X88896Y66382D01*
X88880Y66370D01*
X88872Y66360D01*
X88851Y66342D01*
X85610Y63101D01*
X85550Y63023D01*
X85482Y62951D01*
X85453Y62898D01*
X85416Y62850D01*
X85376Y62759D01*
X85328Y62672D01*
X85313Y62614D01*
X85289Y62558D01*
X85274Y62460D01*
X85249Y62364D01*
X85243Y62264D01*
X85239Y62244D01*
X85241Y62232D01*
X85239Y62204D01*
X85239Y52556D01*
X85254Y52438D01*
X85261Y52319D01*
X85274Y52281D01*
X85279Y52240D01*
X85322Y52130D01*
X85359Y52017D01*
X85381Y51982D01*
X85396Y51945D01*
X85465Y51849D01*
X85529Y51748D01*
X85559Y51720D01*
X85582Y51687D01*
X85674Y51611D01*
X85761Y51530D01*
X85796Y51510D01*
X85827Y51485D01*
X85935Y51434D01*
X86039Y51376D01*
X86079Y51366D01*
X86115Y51349D01*
X86232Y51327D01*
X86347Y51297D01*
X86407Y51293D01*
X86427Y51289D01*
X86448Y51291D01*
X86508Y51287D01*
X88361Y51287D01*
X90287Y49361D01*
X90287Y46639D01*
X89658Y46010D01*
X89598Y45932D01*
X89530Y45860D01*
X89501Y45807D01*
X89464Y45759D01*
X89424Y45668D01*
X89376Y45581D01*
X89361Y45523D01*
X89337Y45467D01*
X89322Y45369D01*
X89297Y45274D01*
X89291Y45173D01*
X89287Y45153D01*
X89289Y45141D01*
X89287Y45113D01*
X89287Y40000D01*
X89302Y39882D01*
X89309Y39763D01*
X89322Y39725D01*
X89327Y39684D01*
X89370Y39574D01*
X89407Y39461D01*
X89429Y39426D01*
X89444Y39389D01*
X89513Y39293D01*
X89577Y39192D01*
X89607Y39164D01*
X89630Y39131D01*
X89722Y39056D01*
X89809Y38974D01*
X89844Y38954D01*
X89875Y38929D01*
X89983Y38878D01*
X90087Y38820D01*
X90127Y38810D01*
X90163Y38793D01*
X90280Y38771D01*
X90395Y38741D01*
X90455Y38737D01*
X90475Y38733D01*
X90496Y38735D01*
X90556Y38731D01*
X94444Y38731D01*
X94562Y38746D01*
X94681Y38753D01*
X94719Y38766D01*
X94760Y38771D01*
X94870Y38814D01*
X94983Y38851D01*
X95018Y38873D01*
X95055Y38888D01*
X95151Y38958D01*
X95252Y39021D01*
X95280Y39051D01*
X95313Y39074D01*
X95389Y39166D01*
X95470Y39253D01*
X95490Y39288D01*
X95515Y39319D01*
X95566Y39427D01*
X95624Y39531D01*
X95634Y39571D01*
X95651Y39607D01*
X95673Y39724D01*
X95703Y39839D01*
X95707Y39900D01*
X95711Y39920D01*
X95709Y39940D01*
X95713Y40000D01*
X95713Y53113D01*
X95701Y53211D01*
X95698Y53310D01*
X95681Y53368D01*
X95673Y53428D01*
X95637Y53520D01*
X95609Y53616D01*
X95579Y53668D01*
X95556Y53724D01*
X95498Y53804D01*
X95448Y53889D01*
X95382Y53965D01*
X95370Y53981D01*
X95360Y53989D01*
X95342Y54010D01*
X94713Y54639D01*
X94713Y57361D01*
X96639Y59287D01*
X99361Y59287D01*
X101287Y57361D01*
X101287Y54639D01*
X100658Y54010D01*
X100598Y53932D01*
X100530Y53860D01*
X100501Y53807D01*
X100464Y53759D01*
X100424Y53668D01*
X100376Y53581D01*
X100361Y53523D01*
X100337Y53467D01*
X100322Y53369D01*
X100297Y53274D01*
X100291Y53173D01*
X100287Y53153D01*
X100289Y53141D01*
X100287Y53113D01*
X100287Y42085D01*
X100304Y41947D01*
X100317Y41809D01*
X100324Y41789D01*
X100327Y41769D01*
X100378Y41640D01*
X100425Y41509D01*
X100436Y41492D01*
X100444Y41474D01*
X100525Y41361D01*
X100603Y41246D01*
X100619Y41233D01*
X100630Y41216D01*
X100738Y41128D01*
X100842Y41036D01*
X100860Y41026D01*
X100875Y41014D01*
X101001Y40954D01*
X101125Y40891D01*
X101145Y40887D01*
X101163Y40878D01*
X101299Y40852D01*
X101435Y40821D01*
X101456Y40822D01*
X101475Y40818D01*
X101614Y40827D01*
X101753Y40831D01*
X101773Y40837D01*
X101793Y40838D01*
X101925Y40881D01*
X102059Y40919D01*
X102076Y40930D01*
X102095Y40936D01*
X102213Y41011D01*
X102333Y41081D01*
X102354Y41100D01*
X102364Y41106D01*
X102378Y41121D01*
X102453Y41187D01*
X106342Y45075D01*
X106402Y45154D01*
X106470Y45226D01*
X106499Y45279D01*
X106536Y45327D01*
X106576Y45418D01*
X106624Y45504D01*
X106639Y45563D01*
X106663Y45619D01*
X106678Y45717D01*
X106703Y45812D01*
X106709Y45912D01*
X106713Y45933D01*
X106711Y45945D01*
X106713Y45973D01*
X106713Y53113D01*
X106701Y53211D01*
X106698Y53310D01*
X106681Y53368D01*
X106673Y53428D01*
X106637Y53520D01*
X106609Y53616D01*
X106579Y53668D01*
X106556Y53724D01*
X106498Y53804D01*
X106448Y53889D01*
X106382Y53965D01*
X106370Y53981D01*
X106360Y53989D01*
X106342Y54010D01*
X105713Y54639D01*
X105713Y57361D01*
X107639Y59287D01*
X110361Y59287D01*
X112287Y57361D01*
X112287Y54639D01*
X111658Y54010D01*
X111598Y53932D01*
X111530Y53860D01*
X111501Y53807D01*
X111464Y53759D01*
X111424Y53668D01*
X111376Y53581D01*
X111361Y53523D01*
X111337Y53467D01*
X111322Y53369D01*
X111297Y53274D01*
X111291Y53173D01*
X111287Y53153D01*
X111289Y53141D01*
X111287Y53113D01*
X111287Y43553D01*
X108631Y40898D01*
X108546Y40788D01*
X108458Y40681D01*
X108449Y40662D01*
X108436Y40646D01*
X108381Y40518D01*
X108322Y40393D01*
X108318Y40373D01*
X108310Y40354D01*
X108288Y40216D01*
X108262Y40081D01*
X108263Y40060D01*
X108260Y40040D01*
X108273Y39901D01*
X108282Y39763D01*
X108288Y39744D01*
X108290Y39724D01*
X108337Y39592D01*
X108380Y39461D01*
X108391Y39443D01*
X108398Y39424D01*
X108476Y39309D01*
X108550Y39192D01*
X108565Y39178D01*
X108576Y39161D01*
X108681Y39069D01*
X108782Y38974D01*
X108799Y38964D01*
X108815Y38951D01*
X108939Y38887D01*
X109060Y38820D01*
X109080Y38815D01*
X109098Y38806D01*
X109234Y38776D01*
X109368Y38741D01*
X109396Y38739D01*
X109408Y38737D01*
X109429Y38737D01*
X109529Y38731D01*
X207487Y38731D01*
X207591Y38744D01*
X207697Y38748D01*
X207749Y38764D01*
X207802Y38771D01*
X207900Y38810D01*
X208002Y38840D01*
X208048Y38868D01*
X208098Y38888D01*
X208183Y38950D01*
X208274Y39004D01*
X208312Y39043D01*
X208355Y39074D01*
X208423Y39156D01*
X208497Y39231D01*
X208544Y39303D01*
X208558Y39319D01*
X208565Y39334D01*
X208586Y39365D01*
X208970Y40030D01*
X213318Y42541D01*
X216190Y42541D01*
X216308Y42556D01*
X216427Y42563D01*
X216465Y42576D01*
X216506Y42581D01*
X216616Y42624D01*
X216729Y42661D01*
X216764Y42683D01*
X216801Y42698D01*
X216897Y42767D01*
X216998Y42831D01*
X217026Y42861D01*
X217059Y42884D01*
X217135Y42976D01*
X217216Y43063D01*
X217236Y43098D01*
X217261Y43129D01*
X217312Y43237D01*
X217370Y43341D01*
X217380Y43381D01*
X217397Y43417D01*
X217419Y43534D01*
X217449Y43649D01*
X217453Y43709D01*
X217457Y43729D01*
X217455Y43750D01*
X217459Y43810D01*
X217459Y218695D01*
X217442Y218833D01*
X217429Y218972D01*
X217422Y218991D01*
X217419Y219011D01*
X217368Y219140D01*
X217321Y219271D01*
X217310Y219288D01*
X217302Y219307D01*
X217221Y219419D01*
X217143Y219534D01*
X217127Y219547D01*
X217116Y219564D01*
X217008Y219653D01*
X216904Y219745D01*
X216886Y219754D01*
X216871Y219767D01*
X216745Y219826D01*
X216621Y219889D01*
X216601Y219894D01*
X216583Y219902D01*
X216446Y219928D01*
X216311Y219959D01*
X216290Y219958D01*
X216271Y219962D01*
X216132Y219953D01*
X215993Y219949D01*
X215973Y219944D01*
X215953Y219942D01*
X215821Y219900D01*
X215687Y219861D01*
X215670Y219850D01*
X215651Y219844D01*
X215533Y219770D01*
X215413Y219699D01*
X215392Y219681D01*
X215382Y219674D01*
X215368Y219659D01*
X215293Y219593D01*
X214541Y218841D01*
X213262Y217912D01*
X211854Y217195D01*
X210351Y216707D01*
X209269Y216535D01*
X209269Y234000D01*
X209269Y251465D01*
X210351Y251293D01*
X211854Y250805D01*
X213262Y250088D01*
X214541Y249159D01*
X215293Y248407D01*
X215402Y248322D01*
X215509Y248233D01*
X215528Y248225D01*
X215544Y248212D01*
X215672Y248157D01*
X215797Y248098D01*
X215817Y248094D01*
X215836Y248086D01*
X215974Y248064D01*
X216110Y248038D01*
X216130Y248039D01*
X216150Y248036D01*
X216289Y248049D01*
X216427Y248058D01*
X216446Y248064D01*
X216466Y248066D01*
X216597Y248113D01*
X216729Y248156D01*
X216747Y248167D01*
X216766Y248173D01*
X216880Y248251D01*
X216998Y248326D01*
X217012Y248341D01*
X217029Y248352D01*
X217121Y248456D01*
X217216Y248558D01*
X217226Y248575D01*
X217239Y248590D01*
X217302Y248714D01*
X217370Y248836D01*
X217375Y248856D01*
X217384Y248874D01*
X217414Y249010D01*
X217449Y249144D01*
X217451Y249172D01*
X217454Y249184D01*
X217453Y249204D01*
X217459Y249305D01*
X217459Y796390D01*
X217444Y796508D01*
X217437Y796627D01*
X217424Y796665D01*
X217419Y796706D01*
X217376Y796816D01*
X217339Y796929D01*
X217317Y796964D01*
X217302Y797001D01*
X217233Y797097D01*
X217169Y797198D01*
X217139Y797226D01*
X217116Y797259D01*
X217024Y797335D01*
X216937Y797416D01*
X216902Y797436D01*
X216871Y797461D01*
X216763Y797512D01*
X216659Y797570D01*
X216619Y797580D01*
X216583Y797597D01*
X216466Y797619D01*
X216351Y797649D01*
X216291Y797653D01*
X216271Y797657D01*
X216250Y797655D01*
X216190Y797659D01*
X133624Y797659D01*
X133537Y797648D01*
X133450Y797647D01*
X133380Y797628D01*
X133309Y797619D01*
X133227Y797587D01*
X133143Y797564D01*
X133080Y797529D01*
X133013Y797502D01*
X132942Y797451D01*
X132866Y797408D01*
X132814Y797358D01*
X132756Y797316D01*
X132700Y797248D01*
X132637Y797187D01*
X132599Y797126D01*
X132553Y797071D01*
X132516Y796991D01*
X132470Y796917D01*
X132448Y796848D01*
X132417Y796783D01*
X132401Y796697D01*
X132375Y796613D01*
X132364Y796516D01*
X129813Y789824D01*
X125328Y784258D01*
X119343Y780351D01*
X112443Y778484D01*
X108968Y778658D01*
X108951Y778656D01*
X108905Y778659D01*
X105588Y778659D01*
X99099Y780768D01*
X93579Y784779D01*
X89568Y790299D01*
X87461Y796782D01*
X87427Y796854D01*
X87403Y796929D01*
X87360Y796997D01*
X87326Y797070D01*
X87275Y797131D01*
X87233Y797198D01*
X87174Y797253D01*
X87123Y797315D01*
X87059Y797362D01*
X87001Y797416D01*
X86931Y797455D01*
X86866Y797502D01*
X86792Y797531D01*
X86723Y797570D01*
X86645Y797590D01*
X86570Y797619D01*
X86492Y797629D01*
X86415Y797649D01*
X86255Y797659D01*
X86254Y797659D01*
X3810Y797659D01*
X3692Y797644D01*
X3573Y797637D01*
X3535Y797624D01*
X3494Y797619D01*
X3384Y797576D01*
X3271Y797539D01*
X3236Y797517D01*
X3199Y797502D01*
X3103Y797433D01*
X3002Y797369D01*
X2974Y797339D01*
X2941Y797316D01*
X2865Y797224D01*
X2784Y797137D01*
X2764Y797102D01*
X2739Y797071D01*
X2688Y796963D01*
X2630Y796859D01*
X2620Y796819D01*
X2603Y796783D01*
X2581Y796666D01*
X2551Y796551D01*
X2547Y796491D01*
X2543Y796471D01*
X2545Y796450D01*
X2541Y796390D01*
X2541Y248093D01*
X2551Y248014D01*
X2551Y247934D01*
X2571Y247857D01*
X2581Y247777D01*
X2610Y247703D01*
X2630Y247626D01*
X2668Y247556D01*
X2698Y247481D01*
X2744Y247417D01*
X2783Y247347D01*
X2837Y247289D01*
X2884Y247224D01*
X2946Y247173D01*
X3000Y247115D01*
X3068Y247072D01*
X3129Y247021D01*
X3201Y246987D01*
X3269Y246945D01*
X3345Y246920D01*
X3417Y246886D01*
X3495Y246871D01*
X3571Y246846D01*
X3651Y246841D01*
X3729Y246826D01*
X3809Y246831D01*
X3889Y246826D01*
X3967Y246841D01*
X4047Y246846D01*
X4123Y246870D01*
X4201Y246885D01*
X4273Y246919D01*
X4349Y246944D01*
X4417Y246986D01*
X4489Y247020D01*
X4551Y247071D01*
X4618Y247114D01*
X4673Y247172D01*
X4734Y247223D01*
X4835Y247345D01*
X4836Y247346D01*
X4837Y247347D01*
X5341Y248041D01*
X6459Y249159D01*
X7738Y250088D01*
X9146Y250805D01*
X10649Y251293D01*
X11731Y251465D01*
X11731Y234000D01*
X11731Y216535D01*
X10649Y216707D01*
X9146Y217195D01*
X7738Y217912D01*
X6459Y218841D01*
X5341Y219959D01*
X4837Y220653D01*
X4782Y220712D01*
X4736Y220776D01*
X4674Y220827D01*
X4619Y220885D01*
X4552Y220928D01*
X4491Y220979D01*
X4418Y221013D01*
X4351Y221056D01*
X4275Y221080D01*
X4203Y221114D01*
X4124Y221129D01*
X4048Y221154D01*
X3969Y221159D01*
X3890Y221174D01*
X3811Y221169D01*
X3731Y221174D01*
X3653Y221159D01*
X3573Y221154D01*
X3497Y221130D01*
X3418Y221115D01*
X3346Y221081D01*
X3271Y221056D01*
X3203Y221013D01*
X3131Y220979D01*
X3069Y220929D01*
X3002Y220886D01*
X2947Y220828D01*
X2885Y220777D01*
X2838Y220712D01*
X2784Y220654D01*
X2745Y220584D01*
X2698Y220520D01*
X2669Y220446D01*
X2630Y220376D01*
X2610Y220299D01*
X2581Y220224D01*
X2571Y220145D01*
X2551Y220068D01*
X2541Y219910D01*
X2541Y219909D01*
X2541Y219908D01*
X2541Y219907D01*
X2541Y43810D01*
X2556Y43692D01*
X2563Y43573D01*
X2576Y43535D01*
X2581Y43494D01*
X2624Y43384D01*
X2661Y43271D01*
X2683Y43236D01*
X2698Y43199D01*
X2767Y43103D01*
X2831Y43002D01*
X2861Y42974D01*
X2884Y42941D01*
X2976Y42865D01*
X3063Y42784D01*
X3098Y42764D01*
X3129Y42739D01*
X3237Y42688D01*
X3341Y42630D01*
X3381Y42620D01*
X3417Y42603D01*
X3534Y42581D01*
X3649Y42551D01*
X3709Y42547D01*
X3729Y42543D01*
X3750Y42545D01*
X3810Y42541D01*
X6682Y42541D01*
X11030Y40030D01*
X11414Y39365D01*
X11478Y39281D01*
X11535Y39192D01*
X11574Y39155D01*
X11606Y39112D01*
X11689Y39046D01*
X11766Y38974D01*
X11813Y38948D01*
X11856Y38914D01*
X11952Y38871D01*
X12045Y38820D01*
X12097Y38807D01*
X12146Y38785D01*
X12250Y38767D01*
X12353Y38741D01*
X12438Y38736D01*
X12460Y38732D01*
X12475Y38733D01*
X12513Y38731D01*
X56471Y38731D01*
X56609Y38748D01*
G37*
%LPC*%
G36*
X93639Y226713D02*
X93639Y226713D01*
X91713Y228639D01*
X91713Y231361D01*
X93639Y233287D01*
X96361Y233287D01*
X96990Y232658D01*
X97068Y232598D01*
X97140Y232530D01*
X97193Y232501D01*
X97241Y232464D01*
X97332Y232424D01*
X97419Y232376D01*
X97477Y232361D01*
X97533Y232337D01*
X97631Y232322D01*
X97726Y232297D01*
X97827Y232291D01*
X97847Y232287D01*
X97859Y232289D01*
X97887Y232287D01*
X109527Y232287D01*
X109625Y232299D01*
X109724Y232302D01*
X109782Y232319D01*
X109843Y232327D01*
X109935Y232363D01*
X110030Y232391D01*
X110082Y232421D01*
X110138Y232444D01*
X110218Y232502D01*
X110304Y232552D01*
X110379Y232618D01*
X110396Y232630D01*
X110403Y232640D01*
X110425Y232658D01*
X111342Y233575D01*
X111402Y233654D01*
X111470Y233726D01*
X111499Y233779D01*
X111536Y233827D01*
X111576Y233918D01*
X111624Y234004D01*
X111639Y234063D01*
X111663Y234119D01*
X111678Y234217D01*
X111703Y234312D01*
X111709Y234412D01*
X111713Y234433D01*
X111711Y234445D01*
X111713Y234473D01*
X111713Y237001D01*
X111696Y237138D01*
X111683Y237277D01*
X111676Y237296D01*
X111673Y237316D01*
X111622Y237445D01*
X111575Y237577D01*
X111564Y237593D01*
X111556Y237612D01*
X111475Y237725D01*
X111397Y237840D01*
X111381Y237853D01*
X111370Y237869D01*
X111262Y237958D01*
X111158Y238050D01*
X111140Y238059D01*
X111125Y238072D01*
X110999Y238132D01*
X110875Y238195D01*
X110855Y238199D01*
X110837Y238208D01*
X110701Y238234D01*
X110565Y238264D01*
X110544Y238264D01*
X110525Y238268D01*
X110386Y238259D01*
X110247Y238255D01*
X110227Y238249D01*
X110207Y238248D01*
X110075Y238205D01*
X109941Y238166D01*
X109924Y238156D01*
X109905Y238150D01*
X109787Y238075D01*
X109667Y238005D01*
X109646Y237986D01*
X109636Y237980D01*
X109622Y237965D01*
X109547Y237898D01*
X107361Y235713D01*
X104639Y235713D01*
X102713Y237639D01*
X102713Y240361D01*
X103342Y240990D01*
X103402Y241068D01*
X103470Y241140D01*
X103499Y241193D01*
X103536Y241241D01*
X103576Y241332D01*
X103624Y241419D01*
X103639Y241477D01*
X103663Y241533D01*
X103678Y241631D01*
X103703Y241726D01*
X103709Y241827D01*
X103713Y241847D01*
X103711Y241859D01*
X103713Y241887D01*
X103713Y248056D01*
X103696Y248194D01*
X103683Y248332D01*
X103676Y248351D01*
X103673Y248371D01*
X103622Y248501D01*
X103575Y248632D01*
X103564Y248648D01*
X103556Y248667D01*
X103475Y248779D01*
X103397Y248895D01*
X103381Y248908D01*
X103370Y248924D01*
X103262Y249013D01*
X103158Y249105D01*
X103140Y249114D01*
X103125Y249127D01*
X102999Y249187D01*
X102875Y249250D01*
X102855Y249254D01*
X102837Y249263D01*
X102701Y249289D01*
X102564Y249319D01*
X102544Y249319D01*
X102525Y249323D01*
X102386Y249314D01*
X102247Y249310D01*
X102227Y249304D01*
X102207Y249303D01*
X102075Y249260D01*
X101941Y249221D01*
X101924Y249211D01*
X101905Y249205D01*
X101787Y249131D01*
X101667Y249060D01*
X101646Y249041D01*
X101636Y249035D01*
X101622Y249020D01*
X101565Y248970D01*
X100981Y248632D01*
X100334Y248459D01*
X99269Y248459D01*
X99269Y266000D01*
X99269Y283541D01*
X100334Y283541D01*
X100981Y283368D01*
X101560Y283033D01*
X101821Y282772D01*
X101909Y282704D01*
X101945Y282670D01*
X101953Y282665D01*
X102004Y282620D01*
X102040Y282602D01*
X102072Y282577D01*
X102182Y282530D01*
X102288Y282476D01*
X102327Y282467D01*
X102364Y282451D01*
X102482Y282432D01*
X102598Y282406D01*
X102638Y282407D01*
X102678Y282401D01*
X102797Y282412D01*
X102916Y282416D01*
X102955Y282427D01*
X102995Y282431D01*
X103107Y282471D01*
X103221Y282504D01*
X103256Y282525D01*
X108632Y282525D01*
X109103Y282054D01*
X109197Y281981D01*
X109286Y281902D01*
X109322Y281884D01*
X109354Y281859D01*
X109463Y281811D01*
X109569Y281757D01*
X109608Y281749D01*
X109646Y281733D01*
X109763Y281714D01*
X109879Y281688D01*
X109920Y281689D01*
X109960Y281683D01*
X110078Y281694D01*
X110197Y281697D01*
X110236Y281709D01*
X110276Y281712D01*
X110388Y281753D01*
X110503Y281786D01*
X110538Y281806D01*
X110576Y281820D01*
X110674Y281887D01*
X110777Y281947D01*
X110822Y281987D01*
X110839Y281999D01*
X110852Y282014D01*
X110898Y282054D01*
X111368Y282525D01*
X116755Y282525D01*
X116851Y282476D01*
X116890Y282467D01*
X116927Y282451D01*
X117045Y282432D01*
X117161Y282406D01*
X117201Y282407D01*
X117241Y282401D01*
X117360Y282412D01*
X117479Y282416D01*
X117518Y282427D01*
X117558Y282431D01*
X117670Y282471D01*
X117784Y282504D01*
X117819Y282525D01*
X117857Y282538D01*
X117956Y282605D01*
X118058Y282666D01*
X118103Y282706D01*
X118120Y282717D01*
X118134Y282732D01*
X118179Y282772D01*
X118440Y283033D01*
X119019Y283368D01*
X119666Y283541D01*
X120731Y283541D01*
X120731Y266000D01*
X120731Y248459D01*
X119666Y248459D01*
X119019Y248632D01*
X118425Y248976D01*
X118344Y249039D01*
X118237Y249127D01*
X118218Y249136D01*
X118202Y249148D01*
X118074Y249204D01*
X117949Y249263D01*
X117929Y249267D01*
X117911Y249275D01*
X117773Y249296D01*
X117636Y249323D01*
X117616Y249321D01*
X117596Y249325D01*
X117458Y249311D01*
X117319Y249303D01*
X117300Y249297D01*
X117280Y249295D01*
X117149Y249248D01*
X117017Y249205D01*
X117000Y249194D01*
X116981Y249187D01*
X116865Y249109D01*
X116748Y249035D01*
X116734Y249020D01*
X116717Y249009D01*
X116625Y248905D01*
X116530Y248803D01*
X116520Y248785D01*
X116507Y248770D01*
X116444Y248646D01*
X116376Y248525D01*
X116371Y248505D01*
X116362Y248487D01*
X116332Y248351D01*
X116297Y248217D01*
X116295Y248189D01*
X116292Y248177D01*
X116293Y248156D01*
X116287Y248056D01*
X116287Y232053D01*
X111947Y227713D01*
X97887Y227713D01*
X97789Y227701D01*
X97690Y227698D01*
X97632Y227681D01*
X97572Y227673D01*
X97480Y227637D01*
X97384Y227609D01*
X97332Y227579D01*
X97276Y227556D01*
X97196Y227498D01*
X97111Y227448D01*
X97035Y227382D01*
X97019Y227370D01*
X97011Y227360D01*
X96990Y227342D01*
X96361Y226713D01*
X93639Y226713D01*
G37*
%LPD*%
%LPC*%
G36*
X120639Y226713D02*
X120639Y226713D01*
X118713Y228639D01*
X118713Y231361D01*
X120639Y233287D01*
X123361Y233287D01*
X123990Y232658D01*
X124068Y232598D01*
X124140Y232530D01*
X124193Y232501D01*
X124241Y232464D01*
X124332Y232424D01*
X124419Y232376D01*
X124477Y232361D01*
X124533Y232337D01*
X124631Y232322D01*
X124726Y232297D01*
X124827Y232291D01*
X124847Y232287D01*
X124859Y232289D01*
X124887Y232287D01*
X131527Y232287D01*
X131625Y232299D01*
X131724Y232302D01*
X131782Y232319D01*
X131843Y232327D01*
X131935Y232363D01*
X132030Y232391D01*
X132082Y232421D01*
X132138Y232444D01*
X132218Y232502D01*
X132304Y232552D01*
X132379Y232618D01*
X132396Y232630D01*
X132403Y232640D01*
X132425Y232658D01*
X135342Y235575D01*
X135402Y235654D01*
X135470Y235726D01*
X135499Y235779D01*
X135536Y235827D01*
X135576Y235918D01*
X135624Y236004D01*
X135639Y236063D01*
X135663Y236119D01*
X135678Y236217D01*
X135703Y236312D01*
X135709Y236412D01*
X135713Y236433D01*
X135711Y236445D01*
X135713Y236473D01*
X135713Y237001D01*
X135696Y237138D01*
X135683Y237277D01*
X135676Y237296D01*
X135673Y237316D01*
X135622Y237445D01*
X135575Y237577D01*
X135564Y237593D01*
X135556Y237612D01*
X135475Y237725D01*
X135397Y237840D01*
X135381Y237853D01*
X135370Y237869D01*
X135262Y237958D01*
X135158Y238050D01*
X135140Y238059D01*
X135125Y238072D01*
X134999Y238132D01*
X134875Y238195D01*
X134855Y238199D01*
X134837Y238208D01*
X134701Y238234D01*
X134565Y238264D01*
X134544Y238264D01*
X134525Y238268D01*
X134386Y238259D01*
X134247Y238255D01*
X134227Y238249D01*
X134207Y238248D01*
X134075Y238205D01*
X133941Y238166D01*
X133924Y238156D01*
X133905Y238150D01*
X133787Y238075D01*
X133667Y238005D01*
X133646Y237986D01*
X133636Y237980D01*
X133622Y237965D01*
X133547Y237898D01*
X131361Y235713D01*
X128639Y235713D01*
X126713Y237639D01*
X126713Y240361D01*
X127342Y240990D01*
X127402Y241068D01*
X127470Y241140D01*
X127499Y241193D01*
X127536Y241241D01*
X127576Y241332D01*
X127624Y241419D01*
X127639Y241477D01*
X127663Y241533D01*
X127678Y241631D01*
X127703Y241726D01*
X127709Y241827D01*
X127713Y241847D01*
X127711Y241859D01*
X127713Y241887D01*
X127713Y248056D01*
X127696Y248194D01*
X127683Y248332D01*
X127676Y248351D01*
X127673Y248371D01*
X127622Y248501D01*
X127575Y248632D01*
X127564Y248648D01*
X127556Y248667D01*
X127475Y248779D01*
X127397Y248895D01*
X127381Y248908D01*
X127370Y248924D01*
X127262Y249013D01*
X127158Y249105D01*
X127140Y249114D01*
X127125Y249127D01*
X126999Y249187D01*
X126875Y249250D01*
X126855Y249254D01*
X126837Y249263D01*
X126701Y249289D01*
X126564Y249319D01*
X126544Y249319D01*
X126525Y249323D01*
X126386Y249314D01*
X126247Y249310D01*
X126227Y249304D01*
X126207Y249303D01*
X126075Y249260D01*
X125941Y249221D01*
X125924Y249211D01*
X125905Y249205D01*
X125787Y249131D01*
X125667Y249060D01*
X125646Y249041D01*
X125636Y249035D01*
X125622Y249020D01*
X125565Y248970D01*
X124981Y248632D01*
X124334Y248459D01*
X123269Y248459D01*
X123269Y266000D01*
X123269Y283541D01*
X124334Y283541D01*
X124981Y283368D01*
X125560Y283033D01*
X125821Y282772D01*
X125909Y282704D01*
X125945Y282670D01*
X125953Y282665D01*
X126004Y282620D01*
X126040Y282602D01*
X126072Y282577D01*
X126182Y282530D01*
X126288Y282476D01*
X126327Y282467D01*
X126364Y282451D01*
X126482Y282432D01*
X126598Y282406D01*
X126638Y282407D01*
X126678Y282401D01*
X126797Y282412D01*
X126916Y282416D01*
X126955Y282427D01*
X126995Y282431D01*
X127107Y282471D01*
X127221Y282504D01*
X127256Y282525D01*
X132632Y282525D01*
X133103Y282054D01*
X133197Y281981D01*
X133286Y281902D01*
X133322Y281884D01*
X133354Y281859D01*
X133463Y281811D01*
X133569Y281757D01*
X133608Y281749D01*
X133646Y281733D01*
X133763Y281714D01*
X133879Y281688D01*
X133920Y281689D01*
X133960Y281683D01*
X134078Y281694D01*
X134197Y281697D01*
X134236Y281709D01*
X134276Y281712D01*
X134388Y281753D01*
X134503Y281786D01*
X134538Y281806D01*
X134576Y281820D01*
X134674Y281887D01*
X134777Y281947D01*
X134822Y281987D01*
X134839Y281999D01*
X134852Y282014D01*
X134898Y282054D01*
X135368Y282525D01*
X140755Y282525D01*
X140851Y282476D01*
X140890Y282467D01*
X140927Y282451D01*
X141045Y282432D01*
X141161Y282406D01*
X141201Y282407D01*
X141241Y282401D01*
X141360Y282412D01*
X141479Y282416D01*
X141518Y282427D01*
X141558Y282431D01*
X141670Y282471D01*
X141784Y282504D01*
X141819Y282525D01*
X141857Y282538D01*
X141956Y282605D01*
X142058Y282666D01*
X142103Y282706D01*
X142120Y282717D01*
X142134Y282732D01*
X142179Y282772D01*
X142440Y283033D01*
X143019Y283368D01*
X143666Y283541D01*
X144731Y283541D01*
X144731Y266000D01*
X144731Y248459D01*
X143666Y248459D01*
X143019Y248632D01*
X142425Y248976D01*
X142344Y249039D01*
X142237Y249127D01*
X142218Y249136D01*
X142202Y249148D01*
X142074Y249204D01*
X141949Y249263D01*
X141929Y249267D01*
X141911Y249275D01*
X141773Y249296D01*
X141636Y249323D01*
X141616Y249321D01*
X141596Y249325D01*
X141458Y249311D01*
X141319Y249303D01*
X141300Y249297D01*
X141280Y249295D01*
X141149Y249248D01*
X141017Y249205D01*
X141000Y249194D01*
X140981Y249187D01*
X140865Y249109D01*
X140748Y249035D01*
X140734Y249020D01*
X140717Y249009D01*
X140625Y248905D01*
X140530Y248803D01*
X140520Y248785D01*
X140507Y248770D01*
X140444Y248646D01*
X140376Y248525D01*
X140371Y248505D01*
X140362Y248487D01*
X140332Y248351D01*
X140297Y248217D01*
X140295Y248189D01*
X140292Y248177D01*
X140293Y248156D01*
X140287Y248056D01*
X140287Y234053D01*
X133947Y227713D01*
X124887Y227713D01*
X124789Y227701D01*
X124690Y227698D01*
X124632Y227681D01*
X124572Y227673D01*
X124480Y227637D01*
X124384Y227609D01*
X124332Y227579D01*
X124276Y227556D01*
X124196Y227498D01*
X124111Y227448D01*
X124035Y227382D01*
X124019Y227370D01*
X124011Y227360D01*
X123990Y227342D01*
X123361Y226713D01*
X120639Y226713D01*
G37*
%LPD*%
%LPC*%
G36*
X106511Y511459D02*
X106511Y511459D01*
X100064Y514130D01*
X95130Y519064D01*
X92459Y525511D01*
X92459Y532489D01*
X95130Y538936D01*
X100064Y543870D01*
X106511Y546541D01*
X113489Y546541D01*
X119936Y543870D01*
X124870Y538936D01*
X127541Y532489D01*
X127541Y525511D01*
X124870Y519064D01*
X119936Y514130D01*
X113489Y511459D01*
X106511Y511459D01*
G37*
%LPD*%
%LPC*%
G36*
X106511Y571459D02*
X106511Y571459D01*
X100064Y574130D01*
X95130Y579064D01*
X92459Y585511D01*
X92459Y592489D01*
X95130Y598936D01*
X100064Y603870D01*
X106511Y606541D01*
X113489Y606541D01*
X119936Y603870D01*
X124870Y598936D01*
X127541Y592489D01*
X127541Y585511D01*
X124870Y579064D01*
X119936Y574130D01*
X113489Y571459D01*
X106511Y571459D01*
G37*
%LPD*%
%LPC*%
G36*
X71511Y641459D02*
X71511Y641459D01*
X65064Y644130D01*
X60130Y649064D01*
X57459Y655511D01*
X57459Y662489D01*
X60130Y668936D01*
X65064Y673870D01*
X71511Y676541D01*
X78489Y676541D01*
X84936Y673870D01*
X89870Y668936D01*
X92541Y662489D01*
X92541Y655511D01*
X89870Y649064D01*
X84936Y644130D01*
X78489Y641459D01*
X71511Y641459D01*
G37*
%LPD*%
%LPC*%
G36*
X160639Y225713D02*
X160639Y225713D01*
X158713Y227639D01*
X158713Y230361D01*
X159342Y230990D01*
X159402Y231068D01*
X159470Y231140D01*
X159499Y231193D01*
X159536Y231241D01*
X159576Y231332D01*
X159624Y231419D01*
X159639Y231477D01*
X159663Y231533D01*
X159678Y231631D01*
X159703Y231726D01*
X159709Y231827D01*
X159713Y231847D01*
X159711Y231859D01*
X159713Y231887D01*
X159713Y236001D01*
X159696Y236138D01*
X159683Y236277D01*
X159676Y236296D01*
X159673Y236316D01*
X159622Y236445D01*
X159575Y236577D01*
X159564Y236593D01*
X159556Y236612D01*
X159475Y236725D01*
X159397Y236840D01*
X159381Y236853D01*
X159370Y236869D01*
X159262Y236958D01*
X159158Y237050D01*
X159140Y237059D01*
X159125Y237072D01*
X158999Y237131D01*
X158875Y237195D01*
X158855Y237199D01*
X158837Y237208D01*
X158701Y237234D01*
X158565Y237264D01*
X158544Y237264D01*
X158525Y237268D01*
X158386Y237259D01*
X158247Y237255D01*
X158227Y237249D01*
X158207Y237248D01*
X158075Y237205D01*
X157941Y237166D01*
X157924Y237156D01*
X157905Y237150D01*
X157787Y237075D01*
X157667Y237005D01*
X157646Y236986D01*
X157636Y236980D01*
X157622Y236965D01*
X157547Y236898D01*
X155361Y234713D01*
X152639Y234713D01*
X150713Y236639D01*
X150713Y239361D01*
X151342Y239990D01*
X151402Y240068D01*
X151470Y240140D01*
X151499Y240193D01*
X151536Y240241D01*
X151576Y240332D01*
X151624Y240419D01*
X151639Y240477D01*
X151663Y240533D01*
X151678Y240631D01*
X151703Y240726D01*
X151709Y240827D01*
X151713Y240847D01*
X151711Y240859D01*
X151713Y240887D01*
X151713Y248056D01*
X151696Y248194D01*
X151683Y248332D01*
X151676Y248351D01*
X151673Y248371D01*
X151622Y248501D01*
X151575Y248632D01*
X151564Y248648D01*
X151556Y248667D01*
X151475Y248779D01*
X151397Y248895D01*
X151381Y248908D01*
X151370Y248924D01*
X151262Y249013D01*
X151158Y249105D01*
X151140Y249114D01*
X151125Y249127D01*
X150999Y249187D01*
X150875Y249250D01*
X150855Y249254D01*
X150837Y249263D01*
X150701Y249289D01*
X150564Y249319D01*
X150544Y249319D01*
X150525Y249323D01*
X150386Y249314D01*
X150247Y249310D01*
X150227Y249304D01*
X150207Y249303D01*
X150075Y249260D01*
X149941Y249221D01*
X149924Y249211D01*
X149905Y249205D01*
X149787Y249131D01*
X149667Y249060D01*
X149646Y249041D01*
X149636Y249035D01*
X149622Y249020D01*
X149565Y248970D01*
X148981Y248632D01*
X148334Y248459D01*
X147269Y248459D01*
X147269Y266000D01*
X147269Y283541D01*
X148334Y283541D01*
X148981Y283368D01*
X149560Y283033D01*
X149821Y282772D01*
X149909Y282704D01*
X149945Y282670D01*
X149953Y282665D01*
X150004Y282620D01*
X150040Y282602D01*
X150072Y282577D01*
X150182Y282530D01*
X150288Y282476D01*
X150327Y282467D01*
X150364Y282451D01*
X150482Y282432D01*
X150598Y282406D01*
X150638Y282407D01*
X150678Y282401D01*
X150797Y282412D01*
X150916Y282416D01*
X150955Y282427D01*
X150995Y282431D01*
X151107Y282471D01*
X151221Y282504D01*
X151256Y282525D01*
X156632Y282525D01*
X157103Y282054D01*
X157197Y281981D01*
X157286Y281902D01*
X157322Y281884D01*
X157354Y281859D01*
X157463Y281811D01*
X157569Y281757D01*
X157608Y281749D01*
X157646Y281733D01*
X157763Y281714D01*
X157879Y281688D01*
X157920Y281689D01*
X157960Y281683D01*
X158078Y281694D01*
X158197Y281697D01*
X158236Y281709D01*
X158276Y281712D01*
X158388Y281753D01*
X158503Y281786D01*
X158538Y281806D01*
X158576Y281820D01*
X158674Y281887D01*
X158777Y281947D01*
X158822Y281987D01*
X158839Y281999D01*
X158852Y282014D01*
X158898Y282054D01*
X159368Y282525D01*
X164755Y282525D01*
X164851Y282476D01*
X164890Y282467D01*
X164927Y282451D01*
X165045Y282432D01*
X165161Y282406D01*
X165201Y282407D01*
X165241Y282401D01*
X165360Y282412D01*
X165479Y282416D01*
X165518Y282427D01*
X165558Y282431D01*
X165670Y282471D01*
X165784Y282504D01*
X165819Y282525D01*
X165857Y282538D01*
X165956Y282605D01*
X166058Y282666D01*
X166103Y282706D01*
X166120Y282717D01*
X166134Y282732D01*
X166179Y282772D01*
X166440Y283033D01*
X167019Y283368D01*
X167666Y283541D01*
X168731Y283541D01*
X168731Y266000D01*
X168731Y248459D01*
X167666Y248459D01*
X167019Y248632D01*
X166425Y248976D01*
X166344Y249039D01*
X166237Y249127D01*
X166218Y249136D01*
X166202Y249148D01*
X166074Y249204D01*
X165949Y249263D01*
X165929Y249267D01*
X165911Y249275D01*
X165773Y249296D01*
X165636Y249323D01*
X165616Y249321D01*
X165596Y249325D01*
X165458Y249311D01*
X165319Y249303D01*
X165300Y249297D01*
X165280Y249295D01*
X165149Y249248D01*
X165017Y249205D01*
X165000Y249194D01*
X164981Y249187D01*
X164865Y249109D01*
X164748Y249035D01*
X164734Y249020D01*
X164717Y249009D01*
X164625Y248905D01*
X164530Y248803D01*
X164520Y248785D01*
X164507Y248770D01*
X164444Y248646D01*
X164376Y248525D01*
X164371Y248505D01*
X164362Y248487D01*
X164332Y248351D01*
X164297Y248217D01*
X164295Y248189D01*
X164292Y248177D01*
X164293Y248156D01*
X164287Y248056D01*
X164287Y231887D01*
X164299Y231789D01*
X164302Y231690D01*
X164319Y231632D01*
X164327Y231572D01*
X164363Y231480D01*
X164391Y231384D01*
X164421Y231332D01*
X164444Y231276D01*
X164502Y231196D01*
X164552Y231111D01*
X164618Y231035D01*
X164630Y231019D01*
X164640Y231011D01*
X164658Y230990D01*
X165287Y230361D01*
X165287Y227639D01*
X163361Y225713D01*
X160639Y225713D01*
G37*
%LPD*%
G36*
X79514Y38746D02*
X79514Y38746D01*
X79633Y38753D01*
X79671Y38766D01*
X79712Y38771D01*
X79822Y38814D01*
X79935Y38851D01*
X79970Y38873D01*
X80007Y38888D01*
X80103Y38958D01*
X80204Y39021D01*
X80232Y39051D01*
X80265Y39074D01*
X80341Y39166D01*
X80422Y39253D01*
X80442Y39288D01*
X80467Y39319D01*
X80518Y39427D01*
X80576Y39531D01*
X80586Y39571D01*
X80603Y39607D01*
X80625Y39724D01*
X80655Y39839D01*
X80659Y39900D01*
X80663Y39920D01*
X80661Y39940D01*
X80665Y40000D01*
X80665Y64624D01*
X87328Y71287D01*
X128001Y71287D01*
X128138Y71304D01*
X128277Y71317D01*
X128296Y71324D01*
X128316Y71327D01*
X128445Y71378D01*
X128577Y71425D01*
X128593Y71436D01*
X128612Y71444D01*
X128724Y71525D01*
X128840Y71603D01*
X128853Y71619D01*
X128869Y71630D01*
X128958Y71738D01*
X129050Y71842D01*
X129059Y71860D01*
X129072Y71875D01*
X129131Y72001D01*
X129195Y72125D01*
X129199Y72145D01*
X129208Y72163D01*
X129234Y72299D01*
X129264Y72435D01*
X129264Y72456D01*
X129268Y72475D01*
X129259Y72614D01*
X129255Y72753D01*
X129249Y72773D01*
X129248Y72793D01*
X129205Y72925D01*
X129166Y73059D01*
X129156Y73076D01*
X129150Y73095D01*
X129075Y73213D01*
X129005Y73333D01*
X128986Y73354D01*
X128980Y73364D01*
X128965Y73378D01*
X128898Y73453D01*
X128010Y74342D01*
X127932Y74402D01*
X127860Y74470D01*
X127807Y74499D01*
X127759Y74536D01*
X127668Y74576D01*
X127581Y74624D01*
X127523Y74639D01*
X127467Y74663D01*
X127369Y74678D01*
X127274Y74703D01*
X127174Y74709D01*
X127153Y74713D01*
X127141Y74711D01*
X127113Y74713D01*
X67973Y74713D01*
X67875Y74701D01*
X67776Y74698D01*
X67718Y74681D01*
X67657Y74673D01*
X67565Y74637D01*
X67470Y74609D01*
X67418Y74579D01*
X67362Y74556D01*
X67282Y74498D01*
X67196Y74448D01*
X67121Y74382D01*
X67104Y74370D01*
X67097Y74360D01*
X67075Y74342D01*
X60158Y67425D01*
X60098Y67346D01*
X60030Y67274D01*
X60001Y67221D01*
X59964Y67173D01*
X59924Y67082D01*
X59876Y66996D01*
X59861Y66937D01*
X59837Y66881D01*
X59822Y66783D01*
X59797Y66688D01*
X59791Y66588D01*
X59787Y66567D01*
X59789Y66555D01*
X59787Y66527D01*
X59787Y53473D01*
X59799Y53375D01*
X59802Y53276D01*
X59819Y53218D01*
X59827Y53157D01*
X59863Y53065D01*
X59891Y52970D01*
X59921Y52918D01*
X59944Y52862D01*
X60002Y52782D01*
X60052Y52696D01*
X60118Y52621D01*
X60130Y52604D01*
X60140Y52597D01*
X60158Y52575D01*
X73631Y39103D01*
X73710Y39042D01*
X73782Y38974D01*
X73835Y38945D01*
X73883Y38908D01*
X73974Y38868D01*
X74060Y38820D01*
X74119Y38805D01*
X74175Y38781D01*
X74273Y38766D01*
X74368Y38741D01*
X74468Y38735D01*
X74489Y38731D01*
X74501Y38733D01*
X74529Y38731D01*
X79396Y38731D01*
X79514Y38746D01*
G37*
%LPC*%
G36*
X29301Y209459D02*
X29301Y209459D01*
X26162Y210759D01*
X23759Y213162D01*
X22459Y216301D01*
X22459Y218695D01*
X22442Y218833D01*
X22429Y218972D01*
X22422Y218991D01*
X22419Y219011D01*
X22368Y219140D01*
X22321Y219271D01*
X22310Y219288D01*
X22302Y219307D01*
X22221Y219419D01*
X22143Y219534D01*
X22127Y219547D01*
X22116Y219564D01*
X22008Y219653D01*
X21904Y219745D01*
X21886Y219754D01*
X21871Y219767D01*
X21745Y219826D01*
X21621Y219889D01*
X21601Y219894D01*
X21583Y219902D01*
X21446Y219928D01*
X21311Y219959D01*
X21290Y219958D01*
X21271Y219962D01*
X21132Y219953D01*
X20993Y219949D01*
X20973Y219944D01*
X20953Y219942D01*
X20821Y219900D01*
X20687Y219861D01*
X20670Y219850D01*
X20651Y219844D01*
X20533Y219770D01*
X20413Y219699D01*
X20392Y219681D01*
X20382Y219674D01*
X20368Y219659D01*
X20293Y219593D01*
X19541Y218841D01*
X18262Y217912D01*
X16854Y217195D01*
X15351Y216707D01*
X14269Y216535D01*
X14269Y232731D01*
X23041Y232731D01*
X23041Y225710D01*
X22976Y225302D01*
X22974Y225222D01*
X22961Y225143D01*
X22969Y225064D01*
X22966Y224984D01*
X22983Y224906D01*
X22991Y224827D01*
X23018Y224751D01*
X23035Y224673D01*
X23072Y224603D01*
X23098Y224527D01*
X23143Y224461D01*
X23180Y224390D01*
X23232Y224330D01*
X23277Y224264D01*
X23337Y224211D01*
X23390Y224151D01*
X23456Y224107D01*
X23516Y224054D01*
X23587Y224018D01*
X23653Y223973D01*
X23728Y223945D01*
X23799Y223909D01*
X23877Y223892D01*
X23952Y223865D01*
X24031Y223857D01*
X24109Y223840D01*
X24189Y223842D01*
X24269Y223834D01*
X24347Y223847D01*
X24427Y223849D01*
X24504Y223872D01*
X24583Y223884D01*
X24656Y223915D01*
X24732Y223938D01*
X24801Y223978D01*
X24875Y224010D01*
X24938Y224059D01*
X25006Y224099D01*
X25125Y224204D01*
X25126Y224205D01*
X25127Y224206D01*
X26162Y225241D01*
X29301Y226541D01*
X32699Y226541D01*
X35838Y225241D01*
X38241Y222838D01*
X39541Y219699D01*
X39541Y216301D01*
X38241Y213162D01*
X35838Y210759D01*
X32699Y209459D01*
X29301Y209459D01*
G37*
%LPD*%
%LPC*%
G36*
X111769Y200269D02*
X111769Y200269D01*
X111769Y209041D01*
X118790Y209041D01*
X120351Y208793D01*
X121854Y208305D01*
X123262Y207588D01*
X124541Y206659D01*
X125659Y205541D01*
X126588Y204262D01*
X127305Y202854D01*
X127793Y201351D01*
X127965Y200269D01*
X111769Y200269D01*
G37*
%LPD*%
%LPC*%
G36*
X14269Y235269D02*
X14269Y235269D01*
X14269Y251465D01*
X15351Y251293D01*
X16854Y250805D01*
X18262Y250088D01*
X19541Y249159D01*
X20659Y248041D01*
X21588Y246762D01*
X22305Y245354D01*
X22793Y243851D01*
X23041Y242290D01*
X23041Y235269D01*
X14269Y235269D01*
G37*
%LPD*%
%LPC*%
G36*
X93035Y200269D02*
X93035Y200269D01*
X93207Y201351D01*
X93695Y202854D01*
X94412Y204262D01*
X95341Y205541D01*
X96459Y206659D01*
X97738Y207588D01*
X99146Y208305D01*
X100649Y208793D01*
X102210Y209041D01*
X109231Y209041D01*
X109231Y200269D01*
X93035Y200269D01*
G37*
%LPD*%
%LPC*%
G36*
X197959Y235269D02*
X197959Y235269D01*
X197959Y242290D01*
X198207Y243851D01*
X198695Y245354D01*
X199412Y246762D01*
X200341Y248041D01*
X201459Y249159D01*
X202738Y250088D01*
X204146Y250805D01*
X205649Y251293D01*
X206731Y251465D01*
X206731Y235269D01*
X197959Y235269D01*
G37*
%LPD*%
%LPC*%
G36*
X102210Y188959D02*
X102210Y188959D01*
X100649Y189207D01*
X99146Y189695D01*
X97738Y190412D01*
X96459Y191341D01*
X95341Y192459D01*
X94412Y193738D01*
X93695Y195146D01*
X93207Y196649D01*
X93035Y197731D01*
X109231Y197731D01*
X109231Y188959D01*
X102210Y188959D01*
G37*
%LPD*%
%LPC*%
G36*
X97457Y352961D02*
X97457Y352961D01*
X95790Y353076D01*
X93509Y355519D01*
X93509Y360869D01*
X93509Y363011D01*
X95223Y365370D01*
X97997Y366271D01*
X100770Y365370D01*
X102484Y363011D01*
X102484Y357163D01*
X101848Y356288D01*
X100820Y355953D01*
X99821Y356278D01*
X99658Y356309D01*
X99510Y356337D01*
X99509Y356337D01*
X99508Y356337D01*
X99349Y356327D01*
X99192Y356318D01*
X99191Y356318D01*
X99190Y356317D01*
X99036Y356278D01*
X98053Y355958D01*
X98003Y355935D01*
X97949Y355919D01*
X97859Y355867D01*
X97765Y355823D01*
X97722Y355787D01*
X97674Y355759D01*
X97600Y355686D01*
X97520Y355620D01*
X97487Y355575D01*
X97448Y355536D01*
X97394Y355447D01*
X97333Y355363D01*
X97313Y355311D01*
X97284Y355263D01*
X97254Y355164D01*
X97216Y355067D01*
X97209Y355012D01*
X97193Y354959D01*
X97189Y354855D01*
X97176Y354752D01*
X97183Y354696D01*
X97181Y354641D01*
X97203Y354539D01*
X97216Y354436D01*
X97236Y354385D01*
X97248Y354330D01*
X97294Y354237D01*
X97332Y354141D01*
X97365Y354095D01*
X97390Y354045D01*
X97488Y353918D01*
X97875Y353473D01*
X97854Y353157D01*
X97615Y352950D01*
X97457Y352961D01*
G37*
%LPD*%
%LPC*%
G36*
X44139Y108539D02*
X44139Y108539D01*
X44139Y114541D01*
X56934Y114541D01*
X57581Y114368D01*
X58160Y114033D01*
X58633Y113560D01*
X58968Y112981D01*
X59141Y112334D01*
X59141Y108539D01*
X44139Y108539D01*
G37*
%LPD*%
%LPC*%
G36*
X44139Y164539D02*
X44139Y164539D01*
X44139Y170541D01*
X56934Y170541D01*
X57581Y170368D01*
X58160Y170033D01*
X58633Y169560D01*
X58968Y168981D01*
X59141Y168334D01*
X59141Y164539D01*
X44139Y164539D01*
G37*
%LPD*%
%LPC*%
G36*
X24059Y164539D02*
X24059Y164539D01*
X24059Y168334D01*
X24232Y168981D01*
X24567Y169560D01*
X25040Y170033D01*
X25619Y170368D01*
X26266Y170541D01*
X39061Y170541D01*
X39061Y164539D01*
X24059Y164539D01*
G37*
%LPD*%
%LPC*%
G36*
X24059Y108539D02*
X24059Y108539D01*
X24059Y112334D01*
X24232Y112981D01*
X24567Y113560D01*
X25040Y114033D01*
X25619Y114368D01*
X26266Y114541D01*
X39061Y114541D01*
X39061Y108539D01*
X24059Y108539D01*
G37*
%LPD*%
%LPC*%
G36*
X44139Y153459D02*
X44139Y153459D01*
X44139Y159461D01*
X59141Y159461D01*
X59141Y155666D01*
X58968Y155019D01*
X58633Y154440D01*
X58160Y153967D01*
X57581Y153632D01*
X56934Y153459D01*
X44139Y153459D01*
G37*
%LPD*%
%LPC*%
G36*
X44139Y97459D02*
X44139Y97459D01*
X44139Y103461D01*
X59141Y103461D01*
X59141Y99666D01*
X58968Y99019D01*
X58633Y98440D01*
X58160Y97967D01*
X57581Y97632D01*
X56934Y97459D01*
X44139Y97459D01*
G37*
%LPD*%
%LPC*%
G36*
X26266Y153459D02*
X26266Y153459D01*
X25619Y153632D01*
X25040Y153967D01*
X24567Y154440D01*
X24232Y155019D01*
X24059Y155666D01*
X24059Y159461D01*
X39061Y159461D01*
X39061Y153459D01*
X26266Y153459D01*
G37*
%LPD*%
%LPC*%
G36*
X26266Y97459D02*
X26266Y97459D01*
X25619Y97632D01*
X25040Y97967D01*
X24567Y98440D01*
X24232Y99019D01*
X24059Y99666D01*
X24059Y103461D01*
X39061Y103461D01*
X39061Y97459D01*
X26266Y97459D01*
G37*
%LPD*%
%LPC*%
G36*
X58765Y355464D02*
X58765Y355464D01*
X56953Y357959D01*
X56953Y361041D01*
X58765Y363536D01*
X61697Y364488D01*
X64629Y363536D01*
X66441Y361041D01*
X66441Y357959D01*
X64629Y355464D01*
X61697Y354512D01*
X58765Y355464D01*
G37*
%LPD*%
%LPC*%
G36*
X132551Y161653D02*
X132551Y161653D01*
X132551Y167751D01*
X141522Y167751D01*
X142169Y167578D01*
X142748Y167243D01*
X143221Y166770D01*
X143556Y166191D01*
X143729Y165544D01*
X143729Y161653D01*
X132551Y161653D01*
G37*
%LPD*%
%LPC*%
G36*
X116295Y161653D02*
X116295Y161653D01*
X116295Y165544D01*
X116468Y166191D01*
X116803Y166770D01*
X117276Y167243D01*
X117855Y167578D01*
X118502Y167751D01*
X127473Y167751D01*
X127473Y161653D01*
X116295Y161653D01*
G37*
%LPD*%
%LPC*%
G36*
X132551Y156575D02*
X132551Y156575D01*
X143729Y156575D01*
X143729Y152684D01*
X143556Y152037D01*
X143221Y151458D01*
X142748Y150985D01*
X142169Y150650D01*
X141522Y150477D01*
X132551Y150477D01*
X132551Y156575D01*
G37*
%LPD*%
%LPC*%
G36*
X118502Y150477D02*
X118502Y150477D01*
X117855Y150650D01*
X117276Y150985D01*
X116803Y151458D01*
X116468Y152037D01*
X116295Y152684D01*
X116295Y156575D01*
X127473Y156575D01*
X127473Y150477D01*
X118502Y150477D01*
G37*
%LPD*%
%LPC*%
G36*
X93459Y267269D02*
X93459Y267269D01*
X93459Y281334D01*
X93632Y281981D01*
X93967Y282560D01*
X94440Y283033D01*
X95019Y283368D01*
X95666Y283541D01*
X96731Y283541D01*
X96731Y267269D01*
X93459Y267269D01*
G37*
%LPD*%
%LPC*%
G36*
X95666Y248459D02*
X95666Y248459D01*
X95019Y248632D01*
X94440Y248967D01*
X93967Y249440D01*
X93632Y250019D01*
X93459Y250666D01*
X93459Y264731D01*
X96731Y264731D01*
X96731Y248459D01*
X95666Y248459D01*
G37*
%LPD*%
%LPC*%
G36*
X166639Y66713D02*
X166639Y66713D01*
X164713Y68639D01*
X164713Y71361D01*
X166639Y73287D01*
X169361Y73287D01*
X171287Y71361D01*
X171287Y68639D01*
X169361Y66713D01*
X166639Y66713D01*
G37*
%LPD*%
%LPC*%
G36*
X139720Y354538D02*
X139720Y354538D01*
X138953Y355688D01*
X138919Y355727D01*
X138893Y355770D01*
X138816Y355846D01*
X138745Y355928D01*
X138703Y355958D01*
X138666Y355993D01*
X138573Y356048D01*
X138483Y356110D01*
X138435Y356127D01*
X138391Y356153D01*
X138287Y356182D01*
X138185Y356220D01*
X138134Y356225D01*
X138085Y356239D01*
X137977Y356242D01*
X137869Y356253D01*
X137818Y356245D01*
X137767Y356247D01*
X137662Y356222D01*
X137554Y356206D01*
X137507Y356186D01*
X137458Y356175D01*
X137361Y356125D01*
X137261Y356083D01*
X137220Y356052D01*
X137175Y356028D01*
X137095Y355956D01*
X137008Y355890D01*
X136976Y355850D01*
X136938Y355816D01*
X136841Y355688D01*
X136074Y354538D01*
X135764Y354476D01*
X135501Y354651D01*
X135439Y354961D01*
X136969Y357256D01*
X136981Y357282D01*
X136999Y357304D01*
X137052Y357424D01*
X137111Y357541D01*
X137116Y357568D01*
X137128Y357594D01*
X137150Y357724D01*
X137177Y357852D01*
X137176Y357880D01*
X137181Y357908D01*
X137170Y358039D01*
X137165Y358170D01*
X137156Y358197D01*
X137154Y358225D01*
X137111Y358349D01*
X137073Y358474D01*
X137059Y358498D01*
X137049Y358525D01*
X136969Y358664D01*
X135439Y360959D01*
X135501Y361270D01*
X135764Y361445D01*
X136074Y361383D01*
X136841Y360233D01*
X136874Y360194D01*
X136901Y360150D01*
X136978Y360074D01*
X137049Y359992D01*
X137091Y359963D01*
X137127Y359927D01*
X137221Y359873D01*
X137310Y359811D01*
X137358Y359793D01*
X137402Y359768D01*
X137507Y359738D01*
X137609Y359701D01*
X137659Y359695D01*
X137708Y359681D01*
X137817Y359679D01*
X137925Y359668D01*
X137975Y359675D01*
X138026Y359674D01*
X138132Y359699D01*
X138239Y359715D01*
X138286Y359734D01*
X138336Y359746D01*
X138432Y359796D01*
X138533Y359838D01*
X138573Y359869D01*
X138618Y359892D01*
X138699Y359965D01*
X138786Y360031D01*
X138817Y360071D01*
X138855Y360105D01*
X138953Y360233D01*
X139720Y361383D01*
X140030Y361445D01*
X140293Y361270D01*
X140401Y360729D01*
X140412Y360696D01*
X140416Y360662D01*
X140462Y360546D01*
X140502Y360427D01*
X140521Y360398D01*
X140533Y360366D01*
X140607Y360265D01*
X140675Y360160D01*
X140700Y360137D01*
X140720Y360109D01*
X140817Y360029D01*
X140909Y359944D01*
X140939Y359928D01*
X140965Y359906D01*
X141078Y359853D01*
X141189Y359793D01*
X141222Y359785D01*
X141253Y359771D01*
X141376Y359747D01*
X141497Y359717D01*
X141532Y359717D01*
X141565Y359711D01*
X141690Y359719D01*
X141815Y359720D01*
X141848Y359728D01*
X141883Y359731D01*
X142002Y359769D01*
X142123Y359801D01*
X142153Y359818D01*
X142185Y359829D01*
X142291Y359895D01*
X142400Y359957D01*
X142425Y359980D01*
X142454Y359999D01*
X142540Y360090D01*
X142630Y360176D01*
X142648Y360205D01*
X142672Y360230D01*
X142732Y360340D01*
X142798Y360446D01*
X142809Y360479D01*
X142825Y360509D01*
X142857Y360630D01*
X142894Y360749D01*
X142896Y360784D01*
X142905Y360817D01*
X142915Y360977D01*
X142915Y361198D01*
X143014Y361297D01*
X143087Y361391D01*
X143166Y361480D01*
X143184Y361516D01*
X143209Y361548D01*
X143256Y361657D01*
X143298Y361739D01*
X143311Y361692D01*
X143332Y361657D01*
X143346Y361619D01*
X143412Y361520D01*
X143473Y361418D01*
X143513Y361372D01*
X143524Y361356D01*
X143540Y361342D01*
X143579Y361297D01*
X143679Y361198D01*
X143679Y354723D01*
X143455Y354499D01*
X143139Y354499D01*
X142915Y354723D01*
X142915Y354943D01*
X142911Y354977D01*
X142913Y355011D01*
X142891Y355135D01*
X142875Y355259D01*
X142863Y355291D01*
X142856Y355324D01*
X142804Y355438D01*
X142758Y355554D01*
X142738Y355582D01*
X142724Y355613D01*
X142645Y355710D01*
X142571Y355812D01*
X142545Y355834D01*
X142523Y355860D01*
X142423Y355935D01*
X142326Y356015D01*
X142295Y356029D01*
X142268Y356050D01*
X142152Y356097D01*
X142039Y356150D01*
X142005Y356157D01*
X141973Y356170D01*
X141849Y356186D01*
X141726Y356210D01*
X141692Y356208D01*
X141658Y356212D01*
X141534Y356198D01*
X141409Y356190D01*
X141376Y356180D01*
X141342Y356176D01*
X141225Y356131D01*
X141106Y356092D01*
X141077Y356074D01*
X141045Y356061D01*
X140944Y355989D01*
X140838Y355922D01*
X140814Y355897D01*
X140786Y355877D01*
X140706Y355782D01*
X140620Y355690D01*
X140603Y355660D01*
X140581Y355634D01*
X140527Y355522D01*
X140466Y355412D01*
X140458Y355379D01*
X140443Y355348D01*
X140401Y355192D01*
X140293Y354651D01*
X140030Y354476D01*
X139720Y354538D01*
G37*
%LPD*%
%LPC*%
G36*
X122849Y366248D02*
X122849Y366248D01*
X122837Y366264D01*
X122822Y366278D01*
X122782Y366323D01*
X122462Y366644D01*
X122462Y376198D01*
X122685Y376421D01*
X125924Y376421D01*
X126816Y375907D01*
X127090Y375432D01*
X127178Y375316D01*
X127264Y375198D01*
X127274Y375189D01*
X127282Y375178D01*
X127347Y375127D01*
X127341Y375106D01*
X127339Y375078D01*
X127336Y375066D01*
X127337Y375045D01*
X127331Y374945D01*
X127331Y370625D01*
X126205Y369499D01*
X125409Y369499D01*
X124726Y369499D01*
X124725Y369499D01*
X124494Y369499D01*
X124376Y369484D01*
X124257Y369477D01*
X124219Y369464D01*
X124179Y369459D01*
X124068Y369416D01*
X123955Y369379D01*
X123921Y369357D01*
X123883Y369342D01*
X123787Y369273D01*
X123686Y369209D01*
X123658Y369179D01*
X123626Y369156D01*
X123550Y369064D01*
X123468Y368977D01*
X123449Y368942D01*
X123423Y368911D01*
X123372Y368803D01*
X123315Y368699D01*
X123305Y368659D01*
X123287Y368623D01*
X123265Y368506D01*
X123235Y368391D01*
X123231Y368331D01*
X123228Y368311D01*
X123229Y368290D01*
X123225Y368230D01*
X123225Y366644D01*
X122974Y366393D01*
X122901Y366298D01*
X122852Y366243D01*
X122849Y366248D01*
G37*
%LPD*%
%LPC*%
G36*
X107278Y369499D02*
X107278Y369499D01*
X106386Y370014D01*
X105871Y370906D01*
X105871Y375015D01*
X106386Y375907D01*
X107278Y376421D01*
X108708Y376421D01*
X108826Y376436D01*
X108944Y376444D01*
X108983Y376456D01*
X109023Y376461D01*
X109134Y376505D01*
X109247Y376542D01*
X109281Y376563D01*
X109319Y376578D01*
X109415Y376648D01*
X109516Y376712D01*
X109543Y376741D01*
X109576Y376765D01*
X109652Y376857D01*
X109734Y376944D01*
X109753Y376979D01*
X109779Y377010D01*
X109830Y377118D01*
X109887Y377222D01*
X109897Y377261D01*
X109914Y377298D01*
X109937Y377415D01*
X109967Y377530D01*
X109970Y377590D01*
X109974Y377610D01*
X109973Y377630D01*
X109977Y377691D01*
X109977Y379277D01*
X110200Y379501D01*
X110517Y379501D01*
X110740Y379277D01*
X110740Y369723D01*
X110517Y369499D01*
X107278Y369499D01*
G37*
%LPD*%
%LPC*%
G36*
X65959Y150499D02*
X65959Y150499D01*
X65959Y152334D01*
X66132Y152981D01*
X66467Y153560D01*
X66940Y154033D01*
X67519Y154368D01*
X68166Y154541D01*
X74751Y154541D01*
X74751Y150499D01*
X65959Y150499D01*
G37*
%LPD*%
%LPC*%
G36*
X70314Y369499D02*
X70314Y369499D01*
X70090Y369723D01*
X70090Y378662D01*
X70077Y378764D01*
X70073Y378867D01*
X70057Y378921D01*
X70050Y378977D01*
X70046Y378989D01*
X70052Y379014D01*
X70061Y379089D01*
X70080Y379162D01*
X70090Y379322D01*
X70090Y379335D01*
X70101Y379342D01*
X70160Y379388D01*
X70225Y379426D01*
X70346Y379533D01*
X70355Y379542D01*
X70367Y379539D01*
X70442Y379530D01*
X70514Y379511D01*
X70675Y379501D01*
X70688Y379501D01*
X70694Y379490D01*
X70741Y379431D01*
X70779Y379366D01*
X70885Y379245D01*
X70909Y379222D01*
X70931Y379165D01*
X70960Y379066D01*
X71002Y378985D01*
X71010Y378965D01*
X71019Y378954D01*
X71034Y378923D01*
X72463Y376543D01*
X72531Y376455D01*
X72593Y376363D01*
X72629Y376331D01*
X72659Y376293D01*
X72747Y376225D01*
X72830Y376151D01*
X72873Y376129D01*
X72912Y376099D01*
X73014Y376056D01*
X73113Y376005D01*
X73160Y375994D01*
X73204Y375975D01*
X73314Y375958D01*
X73423Y375933D01*
X73471Y375934D01*
X73519Y375927D01*
X73629Y375938D01*
X73740Y375941D01*
X73787Y375954D01*
X73835Y375959D01*
X73940Y375997D01*
X74046Y376027D01*
X74088Y376051D01*
X74134Y376068D01*
X74225Y376131D01*
X74321Y376187D01*
X74356Y376221D01*
X74396Y376248D01*
X74469Y376332D01*
X74548Y376410D01*
X74590Y376471D01*
X74605Y376488D01*
X74613Y376504D01*
X74639Y376543D01*
X76068Y378923D01*
X76109Y379018D01*
X76159Y379108D01*
X76173Y379162D01*
X76196Y379214D01*
X76198Y379226D01*
X76217Y379245D01*
X76263Y379305D01*
X76316Y379357D01*
X76397Y379474D01*
X76400Y379478D01*
X76402Y379481D01*
X76408Y379490D01*
X76414Y379501D01*
X76427Y379501D01*
X76502Y379510D01*
X76577Y379510D01*
X76735Y379539D01*
X76747Y379542D01*
X76757Y379533D01*
X76816Y379487D01*
X76869Y379433D01*
X77001Y379342D01*
X77012Y379335D01*
X77012Y379322D01*
X77022Y379248D01*
X77021Y379173D01*
X77050Y379014D01*
X77058Y378982D01*
X77048Y378922D01*
X77022Y378822D01*
X77017Y378731D01*
X77013Y378710D01*
X77014Y378696D01*
X77012Y378662D01*
X77012Y369723D01*
X76788Y369499D01*
X76472Y369499D01*
X76249Y369723D01*
X76249Y372918D01*
X76231Y373060D01*
X76216Y373203D01*
X76211Y373218D01*
X76209Y373234D01*
X76156Y373367D01*
X76107Y373501D01*
X76098Y373514D01*
X76092Y373530D01*
X76008Y373645D01*
X75927Y373763D01*
X75914Y373774D01*
X75905Y373787D01*
X75795Y373878D01*
X75687Y373972D01*
X75672Y373979D01*
X75660Y373990D01*
X75531Y374051D01*
X75403Y374115D01*
X75387Y374118D01*
X75372Y374125D01*
X75233Y374152D01*
X75092Y374183D01*
X75076Y374182D01*
X75060Y374185D01*
X74918Y374176D01*
X74774Y374171D01*
X74759Y374166D01*
X74742Y374165D01*
X74606Y374121D01*
X74469Y374081D01*
X74450Y374070D01*
X74440Y374067D01*
X74424Y374057D01*
X74326Y374007D01*
X74101Y373872D01*
X74045Y373828D01*
X73984Y373792D01*
X73921Y373730D01*
X73851Y373675D01*
X73839Y373659D01*
X73782Y373637D01*
X73680Y373607D01*
X73606Y373569D01*
X73586Y373561D01*
X73572Y373551D01*
X73571Y373551D01*
X73543Y373554D01*
X73523Y373552D01*
X73468Y373576D01*
X73374Y373627D01*
X73294Y373652D01*
X73274Y373661D01*
X73258Y373664D01*
X73257Y373664D01*
X73240Y373686D01*
X73183Y373730D01*
X73133Y373780D01*
X73001Y373872D01*
X72776Y374007D01*
X72644Y374065D01*
X72516Y374125D01*
X72500Y374128D01*
X72485Y374135D01*
X72343Y374158D01*
X72203Y374185D01*
X72187Y374184D01*
X72171Y374187D01*
X72028Y374174D01*
X71886Y374165D01*
X71870Y374160D01*
X71854Y374159D01*
X71719Y374111D01*
X71583Y374067D01*
X71570Y374059D01*
X71554Y374053D01*
X71435Y373974D01*
X71315Y373897D01*
X71303Y373885D01*
X71290Y373876D01*
X71195Y373770D01*
X71097Y373666D01*
X71089Y373651D01*
X71078Y373639D01*
X71012Y373512D01*
X70943Y373387D01*
X70939Y373371D01*
X70932Y373357D01*
X70899Y373217D01*
X70864Y373079D01*
X70862Y373057D01*
X70860Y373047D01*
X70860Y373028D01*
X70853Y372918D01*
X70853Y369723D01*
X70630Y369499D01*
X70314Y369499D01*
G37*
%LPD*%
%LPC*%
G36*
X115392Y354863D02*
X115392Y354863D01*
X114462Y356143D01*
X114462Y359778D01*
X115392Y361058D01*
X116897Y361547D01*
X118402Y361058D01*
X119208Y359947D01*
X119263Y359889D01*
X119310Y359825D01*
X119331Y359807D01*
X119331Y356143D01*
X118402Y354863D01*
X116897Y354374D01*
X115392Y354863D01*
G37*
%LPD*%
%LPC*%
G36*
X129369Y354499D02*
X129369Y354499D01*
X128477Y355014D01*
X127962Y355906D01*
X127962Y359778D01*
X128892Y361058D01*
X130397Y361547D01*
X131901Y361058D01*
X132831Y359778D01*
X132831Y357802D01*
X132347Y357318D01*
X132274Y357224D01*
X132196Y357135D01*
X132177Y357099D01*
X132152Y357067D01*
X132105Y356957D01*
X132051Y356852D01*
X132042Y356812D01*
X132026Y356775D01*
X132007Y356657D01*
X131981Y356541D01*
X131983Y356501D01*
X131976Y356461D01*
X131987Y356342D01*
X131991Y356223D01*
X132002Y356185D01*
X132006Y356144D01*
X132046Y356032D01*
X132079Y355918D01*
X132100Y355883D01*
X132114Y355845D01*
X132181Y355747D01*
X132241Y355644D01*
X132281Y355599D01*
X132292Y355582D01*
X132308Y355568D01*
X132347Y355523D01*
X132831Y355039D01*
X132831Y354723D01*
X132608Y354499D01*
X129369Y354499D01*
G37*
%LPD*%
%LPC*%
G36*
X137323Y369499D02*
X137323Y369499D01*
X136431Y370014D01*
X135916Y370906D01*
X135916Y374778D01*
X136846Y376058D01*
X138351Y376547D01*
X139855Y376058D01*
X140785Y374778D01*
X140785Y372802D01*
X140301Y372318D01*
X140228Y372224D01*
X140150Y372135D01*
X140131Y372099D01*
X140106Y372067D01*
X140059Y371957D01*
X140005Y371852D01*
X139996Y371812D01*
X139980Y371775D01*
X139961Y371657D01*
X139935Y371541D01*
X139937Y371501D01*
X139930Y371461D01*
X139941Y371342D01*
X139945Y371223D01*
X139956Y371185D01*
X139960Y371144D01*
X140000Y371032D01*
X140033Y370918D01*
X140054Y370883D01*
X140068Y370845D01*
X140134Y370747D01*
X140195Y370644D01*
X140235Y370599D01*
X140246Y370582D01*
X140262Y370568D01*
X140301Y370523D01*
X140785Y370039D01*
X140785Y369723D01*
X140562Y369499D01*
X137323Y369499D01*
G37*
%LPD*%
%LPC*%
G36*
X115441Y369499D02*
X115441Y369499D01*
X114296Y370331D01*
X113859Y371677D01*
X114296Y373023D01*
X114858Y373432D01*
X114902Y373472D01*
X114951Y373506D01*
X115017Y373581D01*
X115090Y373649D01*
X115122Y373700D01*
X115162Y373744D01*
X115207Y373833D01*
X115261Y373918D01*
X115279Y373975D01*
X115306Y374028D01*
X115328Y374125D01*
X115359Y374220D01*
X115363Y374280D01*
X115376Y374338D01*
X115373Y374438D01*
X115379Y374538D01*
X115368Y374596D01*
X115366Y374656D01*
X115338Y374752D01*
X115320Y374850D01*
X115294Y374904D01*
X115278Y374961D01*
X115227Y375047D01*
X115184Y375138D01*
X115146Y375184D01*
X115116Y375235D01*
X115010Y375356D01*
X114484Y375882D01*
X114484Y376198D01*
X114708Y376421D01*
X117434Y376421D01*
X118325Y375907D01*
X118840Y375015D01*
X118840Y369723D01*
X118617Y369499D01*
X116833Y369499D01*
X115441Y369499D01*
G37*
%LPD*%
%LPC*%
G36*
X99241Y369499D02*
X99241Y369499D01*
X98096Y370331D01*
X97659Y371677D01*
X98096Y373023D01*
X98658Y373432D01*
X98702Y373472D01*
X98751Y373506D01*
X98817Y373581D01*
X98890Y373649D01*
X98922Y373700D01*
X98962Y373744D01*
X99007Y373833D01*
X99061Y373918D01*
X99079Y373975D01*
X99106Y374028D01*
X99128Y374125D01*
X99159Y374220D01*
X99163Y374280D01*
X99176Y374338D01*
X99173Y374438D01*
X99179Y374538D01*
X99168Y374596D01*
X99166Y374656D01*
X99138Y374752D01*
X99120Y374850D01*
X99094Y374904D01*
X99078Y374961D01*
X99027Y375047D01*
X98984Y375138D01*
X98947Y375184D01*
X98916Y375235D01*
X98810Y375356D01*
X98284Y375882D01*
X98284Y376198D01*
X98508Y376421D01*
X101234Y376421D01*
X102125Y375907D01*
X102640Y375015D01*
X102640Y369723D01*
X102417Y369499D01*
X100633Y369499D01*
X99241Y369499D01*
G37*
%LPD*%
%LPC*%
G36*
X153361Y354499D02*
X153361Y354499D01*
X151843Y354521D01*
X150415Y355035D01*
X150414Y355035D01*
X150266Y355089D01*
X150131Y355375D01*
X150238Y355672D01*
X150837Y355954D01*
X150936Y356017D01*
X151038Y356073D01*
X151069Y356102D01*
X151105Y356124D01*
X151185Y356210D01*
X151271Y356289D01*
X151294Y356325D01*
X151323Y356356D01*
X151379Y356459D01*
X151442Y356557D01*
X151456Y356598D01*
X151476Y356635D01*
X151505Y356748D01*
X151542Y356859D01*
X151545Y356902D01*
X151555Y356943D01*
X151555Y357060D01*
X151563Y357177D01*
X151555Y357218D01*
X151556Y357261D01*
X151526Y357374D01*
X151505Y357489D01*
X151487Y357528D01*
X151477Y357569D01*
X151420Y357672D01*
X151371Y357778D01*
X151344Y357811D01*
X151323Y357848D01*
X151243Y357933D01*
X151169Y358024D01*
X151135Y358049D01*
X151106Y358080D01*
X151007Y358143D01*
X150913Y358212D01*
X150855Y358239D01*
X150838Y358250D01*
X150819Y358257D01*
X150768Y358281D01*
X150597Y358349D01*
X150007Y359438D01*
X150250Y360652D01*
X151213Y361430D01*
X151832Y361421D01*
X153119Y361403D01*
X154293Y360875D01*
X154437Y360810D01*
X154549Y360514D01*
X154420Y360226D01*
X154151Y360124D01*
X154145Y360120D01*
X154138Y360119D01*
X154003Y360045D01*
X153870Y359975D01*
X153865Y359970D01*
X153859Y359967D01*
X153746Y359862D01*
X153635Y359760D01*
X153631Y359755D01*
X153626Y359750D01*
X153544Y359621D01*
X153461Y359494D01*
X153458Y359488D01*
X153455Y359482D01*
X153406Y359335D01*
X153358Y359193D01*
X153357Y359187D01*
X153355Y359180D01*
X153345Y359027D01*
X153333Y358876D01*
X153334Y358870D01*
X153334Y358863D01*
X153362Y358713D01*
X153388Y358563D01*
X153391Y358557D01*
X153392Y358550D01*
X153456Y358412D01*
X153519Y358273D01*
X153523Y358268D01*
X153526Y358262D01*
X153622Y358144D01*
X153718Y358025D01*
X153723Y358021D01*
X153728Y358016D01*
X153849Y357926D01*
X153972Y357834D01*
X153978Y357832D01*
X153984Y357828D01*
X154129Y357758D01*
X154596Y357572D01*
X155186Y356483D01*
X154943Y355269D01*
X153980Y354490D01*
X153361Y354499D01*
G37*
%LPD*%
%LPC*%
G36*
X89691Y354563D02*
X89691Y354563D01*
X88621Y356583D01*
X88615Y356591D01*
X88612Y356600D01*
X88524Y356721D01*
X88438Y356843D01*
X88431Y356850D01*
X88425Y356858D01*
X88309Y356954D01*
X88196Y357050D01*
X88187Y357054D01*
X88180Y357061D01*
X88044Y357124D01*
X87911Y357190D01*
X87901Y357192D01*
X87892Y357196D01*
X87746Y357224D01*
X87599Y357255D01*
X87589Y357254D01*
X87580Y357256D01*
X87431Y357247D01*
X87282Y357240D01*
X87272Y357237D01*
X87262Y357236D01*
X87121Y357190D01*
X86978Y357146D01*
X86969Y357141D01*
X86960Y357138D01*
X86834Y357058D01*
X86706Y356980D01*
X86699Y356973D01*
X86691Y356968D01*
X86589Y356859D01*
X86485Y356752D01*
X86480Y356744D01*
X86473Y356736D01*
X86401Y356606D01*
X86327Y356476D01*
X86324Y356466D01*
X86320Y356458D01*
X86282Y356314D01*
X86243Y356169D01*
X86243Y356160D01*
X86240Y356150D01*
X86230Y355989D01*
X86230Y354723D01*
X86006Y354499D01*
X85690Y354499D01*
X85466Y354723D01*
X85466Y357410D01*
X85465Y357419D01*
X85466Y357428D01*
X85445Y357577D01*
X85428Y357716D01*
X85454Y357898D01*
X85454Y357908D01*
X85456Y357917D01*
X85466Y358078D01*
X85466Y364277D01*
X85690Y364501D01*
X86006Y364501D01*
X86230Y364277D01*
X86230Y361262D01*
X86236Y361213D01*
X86234Y361164D01*
X86256Y361056D01*
X86270Y360947D01*
X86288Y360901D01*
X86298Y360852D01*
X86346Y360753D01*
X86387Y360651D01*
X86416Y360611D01*
X86438Y360567D01*
X86509Y360483D01*
X86574Y360394D01*
X86612Y360362D01*
X86644Y360325D01*
X86734Y360261D01*
X86819Y360191D01*
X86863Y360170D01*
X86904Y360141D01*
X87007Y360102D01*
X87106Y360055D01*
X87155Y360046D01*
X87201Y360029D01*
X87311Y360016D01*
X87419Y359996D01*
X87468Y359999D01*
X87517Y359993D01*
X87626Y360009D01*
X87736Y360015D01*
X87783Y360031D01*
X87832Y360037D01*
X87934Y360079D01*
X88039Y360113D01*
X88080Y360140D01*
X88126Y360159D01*
X88261Y360247D01*
X89851Y361440D01*
X90164Y361395D01*
X90354Y361142D01*
X90309Y360829D01*
X88978Y359830D01*
X88963Y359817D01*
X88946Y359806D01*
X88850Y359706D01*
X88749Y359609D01*
X88739Y359592D01*
X88725Y359578D01*
X88656Y359457D01*
X88583Y359338D01*
X88577Y359319D01*
X88567Y359302D01*
X88530Y359167D01*
X88489Y359034D01*
X88488Y359014D01*
X88483Y358995D01*
X88481Y358856D01*
X88474Y358717D01*
X88478Y358697D01*
X88478Y358677D01*
X88510Y358542D01*
X88538Y358405D01*
X88547Y358387D01*
X88551Y358368D01*
X88618Y358221D01*
X90365Y354920D01*
X90272Y354618D01*
X89993Y354470D01*
X89691Y354563D01*
G37*
%LPD*%
%LPC*%
G36*
X84262Y369564D02*
X84262Y369564D01*
X84245Y369577D01*
X84187Y369633D01*
X84103Y369704D01*
X84103Y369814D01*
X84100Y369836D01*
X84099Y369917D01*
X84090Y370026D01*
X84168Y370104D01*
X84181Y370121D01*
X84237Y370179D01*
X88178Y374815D01*
X88196Y374842D01*
X88219Y374865D01*
X88282Y374975D01*
X88330Y375048D01*
X88521Y375230D01*
X88532Y375243D01*
X88613Y375327D01*
X88798Y375545D01*
X88847Y375620D01*
X88889Y375671D01*
X88897Y375687D01*
X88925Y375723D01*
X88960Y375793D01*
X88972Y375811D01*
X88977Y375827D01*
X88998Y375867D01*
X89116Y376143D01*
X89147Y376250D01*
X89186Y376356D01*
X89197Y376428D01*
X89203Y376448D01*
X89204Y376467D01*
X89212Y376514D01*
X89229Y376681D01*
X89228Y376700D01*
X89235Y376809D01*
X89235Y376812D01*
X89235Y376814D01*
X89225Y376975D01*
X89202Y377146D01*
X89200Y377155D01*
X89200Y377164D01*
X89160Y377308D01*
X89121Y377453D01*
X89117Y377461D01*
X89114Y377470D01*
X89043Y377614D01*
X88872Y377910D01*
X88817Y377983D01*
X88769Y378062D01*
X88721Y378109D01*
X88680Y378163D01*
X88608Y378221D01*
X88542Y378285D01*
X88444Y378350D01*
X88431Y378361D01*
X88423Y378364D01*
X88408Y378374D01*
X88113Y378545D01*
X88104Y378548D01*
X88097Y378554D01*
X87958Y378610D01*
X87819Y378668D01*
X87810Y378669D01*
X87802Y378673D01*
X87644Y378704D01*
X87473Y378726D01*
X87471Y378726D01*
X87468Y378727D01*
X87308Y378737D01*
X87307Y378737D01*
X87288Y378735D01*
X87269Y378737D01*
X87176Y378728D01*
X87155Y378728D01*
X87142Y378725D01*
X87109Y378722D01*
X86702Y378657D01*
X86645Y378641D01*
X86586Y378633D01*
X86493Y378596D01*
X86397Y378568D01*
X86345Y378538D01*
X86290Y378516D01*
X86154Y378430D01*
X85496Y377951D01*
X85452Y377911D01*
X85403Y377877D01*
X85337Y377802D01*
X85264Y377733D01*
X85232Y377683D01*
X85193Y377639D01*
X85111Y377500D01*
X84924Y377133D01*
X84918Y377114D01*
X84907Y377098D01*
X84848Y376948D01*
X84799Y376798D01*
X84518Y376654D01*
X84217Y376752D01*
X84073Y377033D01*
X84122Y377184D01*
X84457Y378220D01*
X86219Y379501D01*
X87991Y379501D01*
X88029Y379501D01*
X89278Y378780D01*
X89999Y377531D01*
X89999Y376222D01*
X89536Y375142D01*
X89173Y374797D01*
X89163Y374783D01*
X89082Y374700D01*
X87088Y372354D01*
X87040Y372280D01*
X86984Y372213D01*
X86953Y372148D01*
X86914Y372088D01*
X86886Y372004D01*
X86848Y371925D01*
X86835Y371855D01*
X86812Y371787D01*
X86805Y371699D01*
X86788Y371612D01*
X86793Y371541D01*
X86787Y371470D01*
X86803Y371383D01*
X86808Y371295D01*
X86830Y371227D01*
X86843Y371156D01*
X86879Y371076D01*
X86906Y370993D01*
X86944Y370932D01*
X86974Y370867D01*
X87029Y370798D01*
X87076Y370724D01*
X87128Y370675D01*
X87173Y370619D01*
X87244Y370566D01*
X87308Y370506D01*
X87371Y370471D01*
X87428Y370428D01*
X87509Y370395D01*
X87586Y370352D01*
X87656Y370335D01*
X87722Y370307D01*
X87809Y370295D01*
X87894Y370273D01*
X88023Y370265D01*
X88037Y370263D01*
X88043Y370264D01*
X88055Y370263D01*
X89775Y370263D01*
X89999Y370039D01*
X89999Y369723D01*
X89775Y369499D01*
X84552Y369499D01*
X84530Y369497D01*
X84449Y369495D01*
X84340Y369486D01*
X84262Y369564D01*
G37*
%LPD*%
%LPC*%
G36*
X170749Y185399D02*
X170749Y185399D01*
X170749Y190291D01*
X171227Y190291D01*
X172162Y190105D01*
X173043Y189740D01*
X173836Y189210D01*
X174510Y188536D01*
X175040Y187743D01*
X175405Y186862D01*
X175591Y185927D01*
X175591Y185399D01*
X170749Y185399D01*
G37*
%LPD*%
%LPC*%
G36*
X171249Y91399D02*
X171249Y91399D01*
X171249Y96291D01*
X171727Y96291D01*
X172662Y96105D01*
X173543Y95740D01*
X174336Y95210D01*
X175010Y94536D01*
X175540Y93743D01*
X175905Y92862D01*
X176091Y91927D01*
X176091Y91399D01*
X171249Y91399D01*
G37*
%LPD*%
%LPC*%
G36*
X170749Y175909D02*
X170749Y175909D01*
X170749Y180801D01*
X175591Y180801D01*
X175591Y180273D01*
X175405Y179338D01*
X175040Y178457D01*
X174510Y177664D01*
X173836Y176990D01*
X173043Y176460D01*
X172162Y176095D01*
X171227Y175909D01*
X170749Y175909D01*
G37*
%LPD*%
%LPC*%
G36*
X171249Y81909D02*
X171249Y81909D01*
X171249Y86801D01*
X176091Y86801D01*
X176091Y86273D01*
X175905Y85338D01*
X175540Y84457D01*
X175010Y83664D01*
X174336Y82990D01*
X173543Y82460D01*
X172662Y82095D01*
X171727Y81909D01*
X171249Y81909D01*
G37*
%LPD*%
%LPC*%
G36*
X76331Y354487D02*
X76331Y354487D01*
X76322Y354490D01*
X76314Y354496D01*
X76165Y354556D01*
X76095Y354579D01*
X76072Y354649D01*
X76068Y354658D01*
X76066Y354667D01*
X76003Y354815D01*
X75911Y354999D01*
X75905Y355109D01*
X75903Y355118D01*
X75902Y355127D01*
X75861Y355282D01*
X73932Y361069D01*
X74073Y361352D01*
X74373Y361452D01*
X74656Y361310D01*
X75193Y359701D01*
X75223Y359637D01*
X75244Y359571D01*
X75292Y359495D01*
X75330Y359414D01*
X75375Y359360D01*
X75413Y359301D01*
X75477Y359239D01*
X75535Y359170D01*
X75592Y359130D01*
X75643Y359081D01*
X75721Y359037D01*
X75794Y358985D01*
X75859Y358960D01*
X75920Y358926D01*
X76007Y358903D01*
X76090Y358870D01*
X76160Y358862D01*
X76227Y358844D01*
X76317Y358843D01*
X76406Y358833D01*
X76475Y358842D01*
X76545Y358841D01*
X76632Y358863D01*
X76721Y358875D01*
X76786Y358901D01*
X76854Y358918D01*
X76933Y358960D01*
X77016Y358994D01*
X77072Y359035D01*
X77134Y359069D01*
X77200Y359129D01*
X77272Y359183D01*
X77316Y359237D01*
X77368Y359284D01*
X77416Y359360D01*
X77473Y359429D01*
X77503Y359493D01*
X77541Y359551D01*
X77601Y359701D01*
X78138Y361310D01*
X78421Y361452D01*
X78721Y361352D01*
X78862Y361069D01*
X76933Y355282D01*
X76931Y355273D01*
X76928Y355265D01*
X76901Y355119D01*
X76873Y354979D01*
X76791Y354815D01*
X76788Y354806D01*
X76783Y354798D01*
X76722Y354649D01*
X76699Y354579D01*
X76629Y354556D01*
X76620Y354552D01*
X76611Y354550D01*
X76463Y354487D01*
X76397Y354454D01*
X76331Y354487D01*
G37*
%LPD*%
%LPC*%
G36*
X106586Y354499D02*
X106586Y354499D01*
X106362Y354723D01*
X106362Y361198D01*
X106586Y361421D01*
X109825Y361421D01*
X110717Y360907D01*
X111231Y360015D01*
X111231Y354723D01*
X111008Y354499D01*
X110692Y354499D01*
X110468Y354723D01*
X110468Y359389D01*
X110453Y359507D01*
X110446Y359626D01*
X110433Y359664D01*
X110428Y359704D01*
X110384Y359815D01*
X110348Y359928D01*
X110326Y359962D01*
X110311Y360000D01*
X110241Y360096D01*
X110178Y360197D01*
X110148Y360225D01*
X110124Y360257D01*
X110033Y360333D01*
X109946Y360415D01*
X109910Y360434D01*
X109879Y360460D01*
X109772Y360511D01*
X109667Y360568D01*
X109628Y360578D01*
X109592Y360596D01*
X109475Y360618D01*
X109359Y360648D01*
X109299Y360652D01*
X109279Y360655D01*
X109259Y360654D01*
X109199Y360658D01*
X108395Y360658D01*
X108277Y360643D01*
X108158Y360636D01*
X108120Y360623D01*
X108079Y360618D01*
X107969Y360574D01*
X107856Y360538D01*
X107821Y360516D01*
X107784Y360501D01*
X107688Y360431D01*
X107587Y360367D01*
X107559Y360338D01*
X107526Y360314D01*
X107450Y360222D01*
X107369Y360136D01*
X107349Y360100D01*
X107324Y360069D01*
X107273Y359962D01*
X107215Y359857D01*
X107205Y359818D01*
X107188Y359782D01*
X107166Y359665D01*
X107136Y359549D01*
X107132Y359489D01*
X107128Y359469D01*
X107130Y359449D01*
X107126Y359389D01*
X107126Y354723D01*
X106902Y354499D01*
X106586Y354499D01*
G37*
%LPD*%
%LPC*%
G36*
X123937Y354499D02*
X123937Y354499D01*
X123046Y355014D01*
X122531Y355906D01*
X122531Y359389D01*
X122516Y359507D01*
X122509Y359626D01*
X122496Y359664D01*
X122491Y359704D01*
X122447Y359815D01*
X122411Y359928D01*
X122389Y359962D01*
X122374Y360000D01*
X122304Y360096D01*
X122240Y360197D01*
X122211Y360225D01*
X122187Y360257D01*
X122095Y360333D01*
X122009Y360415D01*
X121973Y360434D01*
X121942Y360460D01*
X121912Y360475D01*
X121504Y360882D01*
X121504Y361198D01*
X121917Y361610D01*
X121969Y361648D01*
X122070Y361712D01*
X122097Y361741D01*
X122130Y361765D01*
X122206Y361857D01*
X122288Y361944D01*
X122307Y361979D01*
X122333Y362010D01*
X122384Y362118D01*
X122441Y362222D01*
X122451Y362261D01*
X122469Y362298D01*
X122491Y362415D01*
X122521Y362530D01*
X122524Y362590D01*
X122528Y362610D01*
X122527Y362630D01*
X122531Y362691D01*
X122531Y364277D01*
X122782Y364528D01*
X122855Y364622D01*
X122904Y364677D01*
X122907Y364673D01*
X122919Y364656D01*
X122934Y364643D01*
X122974Y364598D01*
X123294Y364277D01*
X123294Y362691D01*
X123309Y362572D01*
X123317Y362454D01*
X123329Y362415D01*
X123334Y362375D01*
X123378Y362264D01*
X123415Y362151D01*
X123436Y362117D01*
X123451Y362079D01*
X123521Y361983D01*
X123585Y361883D01*
X123614Y361855D01*
X123638Y361822D01*
X123730Y361746D01*
X123816Y361665D01*
X123852Y361645D01*
X123883Y361619D01*
X123991Y361569D01*
X124095Y361511D01*
X124134Y361501D01*
X124171Y361484D01*
X124288Y361461D01*
X124403Y361432D01*
X124463Y361428D01*
X124483Y361424D01*
X124503Y361425D01*
X124564Y361421D01*
X125124Y361421D01*
X125347Y361198D01*
X125347Y360882D01*
X125124Y360658D01*
X124564Y360658D01*
X124445Y360643D01*
X124327Y360636D01*
X124288Y360623D01*
X124248Y360618D01*
X124137Y360574D01*
X124024Y360538D01*
X123990Y360516D01*
X123952Y360501D01*
X123856Y360431D01*
X123755Y360367D01*
X123728Y360338D01*
X123695Y360314D01*
X123619Y360222D01*
X123538Y360136D01*
X123518Y360100D01*
X123492Y360069D01*
X123442Y359962D01*
X123384Y359857D01*
X123374Y359818D01*
X123357Y359782D01*
X123334Y359665D01*
X123305Y359549D01*
X123301Y359489D01*
X123297Y359469D01*
X123298Y359449D01*
X123294Y359389D01*
X123294Y356532D01*
X123309Y356414D01*
X123317Y356295D01*
X123329Y356257D01*
X123334Y356216D01*
X123378Y356106D01*
X123415Y355993D01*
X123436Y355958D01*
X123451Y355921D01*
X123521Y355824D01*
X123585Y355724D01*
X123614Y355696D01*
X123638Y355663D01*
X123730Y355587D01*
X123816Y355506D01*
X123852Y355486D01*
X123883Y355461D01*
X123991Y355410D01*
X124095Y355352D01*
X124134Y355342D01*
X124171Y355325D01*
X124288Y355303D01*
X124403Y355273D01*
X124463Y355269D01*
X124483Y355265D01*
X124503Y355267D01*
X124564Y355263D01*
X125124Y355263D01*
X125347Y355039D01*
X125347Y354723D01*
X125124Y354499D01*
X123937Y354499D01*
G37*
%LPD*%
%LPC*%
G36*
X131891Y369499D02*
X131891Y369499D01*
X131000Y370014D01*
X130485Y370906D01*
X130485Y374389D01*
X130470Y374507D01*
X130463Y374626D01*
X130450Y374664D01*
X130445Y374704D01*
X130401Y374815D01*
X130365Y374928D01*
X130343Y374962D01*
X130328Y375000D01*
X130258Y375096D01*
X130194Y375197D01*
X130165Y375225D01*
X130141Y375257D01*
X130049Y375333D01*
X129963Y375415D01*
X129927Y375434D01*
X129896Y375460D01*
X129865Y375475D01*
X129498Y375842D01*
X129443Y375885D01*
X129448Y375906D01*
X129449Y375924D01*
X129451Y375932D01*
X129451Y375950D01*
X129458Y376066D01*
X129458Y376198D01*
X129871Y376610D01*
X129923Y376648D01*
X130024Y376712D01*
X130051Y376741D01*
X130084Y376765D01*
X130160Y376857D01*
X130242Y376944D01*
X130261Y376979D01*
X130287Y377010D01*
X130338Y377118D01*
X130395Y377222D01*
X130405Y377261D01*
X130423Y377298D01*
X130445Y377415D01*
X130475Y377530D01*
X130478Y377590D01*
X130482Y377610D01*
X130481Y377630D01*
X130485Y377691D01*
X130485Y379277D01*
X130708Y379501D01*
X131025Y379501D01*
X131248Y379277D01*
X131248Y377691D01*
X131263Y377572D01*
X131271Y377454D01*
X131283Y377415D01*
X131288Y377375D01*
X131332Y377264D01*
X131369Y377151D01*
X131390Y377117D01*
X131405Y377079D01*
X131475Y376983D01*
X131539Y376883D01*
X131568Y376855D01*
X131592Y376822D01*
X131684Y376746D01*
X131770Y376665D01*
X131806Y376645D01*
X131837Y376619D01*
X131945Y376569D01*
X132049Y376511D01*
X132088Y376501D01*
X132125Y376484D01*
X132242Y376461D01*
X132357Y376432D01*
X132417Y376428D01*
X132437Y376424D01*
X132457Y376425D01*
X132518Y376421D01*
X133078Y376421D01*
X133301Y376198D01*
X133301Y375882D01*
X133078Y375658D01*
X132518Y375658D01*
X132399Y375643D01*
X132281Y375636D01*
X132242Y375623D01*
X132202Y375618D01*
X132091Y375574D01*
X131978Y375538D01*
X131944Y375516D01*
X131906Y375501D01*
X131810Y375431D01*
X131709Y375367D01*
X131682Y375338D01*
X131649Y375314D01*
X131573Y375222D01*
X131492Y375136D01*
X131472Y375100D01*
X131446Y375069D01*
X131395Y374962D01*
X131338Y374857D01*
X131328Y374818D01*
X131311Y374782D01*
X131288Y374665D01*
X131259Y374549D01*
X131255Y374489D01*
X131251Y374469D01*
X131252Y374449D01*
X131248Y374389D01*
X131248Y371532D01*
X131263Y371414D01*
X131271Y371295D01*
X131283Y371257D01*
X131288Y371216D01*
X131332Y371106D01*
X131369Y370993D01*
X131390Y370958D01*
X131405Y370921D01*
X131475Y370825D01*
X131539Y370724D01*
X131568Y370696D01*
X131592Y370663D01*
X131684Y370587D01*
X131770Y370506D01*
X131806Y370486D01*
X131837Y370461D01*
X131945Y370410D01*
X132049Y370352D01*
X132088Y370342D01*
X132125Y370325D01*
X132242Y370303D01*
X132357Y370273D01*
X132417Y370269D01*
X132437Y370265D01*
X132457Y370267D01*
X132518Y370263D01*
X133078Y370263D01*
X133301Y370039D01*
X133301Y369723D01*
X133078Y369499D01*
X131891Y369499D01*
G37*
%LPD*%
%LPC*%
G36*
X159637Y354499D02*
X159637Y354499D01*
X158746Y355014D01*
X158231Y355906D01*
X158231Y359389D01*
X158216Y359507D01*
X158208Y359626D01*
X158196Y359664D01*
X158191Y359704D01*
X158147Y359815D01*
X158110Y359928D01*
X158089Y359962D01*
X158074Y360000D01*
X158004Y360096D01*
X157940Y360197D01*
X157911Y360225D01*
X157887Y360257D01*
X157795Y360333D01*
X157709Y360415D01*
X157673Y360434D01*
X157642Y360460D01*
X157611Y360475D01*
X157204Y360882D01*
X157204Y361198D01*
X157617Y361610D01*
X157669Y361648D01*
X157770Y361712D01*
X157797Y361741D01*
X157830Y361765D01*
X157906Y361857D01*
X157988Y361944D01*
X158007Y361979D01*
X158033Y362010D01*
X158084Y362118D01*
X158141Y362222D01*
X158151Y362261D01*
X158168Y362298D01*
X158191Y362415D01*
X158221Y362530D01*
X158224Y362590D01*
X158228Y362610D01*
X158227Y362630D01*
X158231Y362691D01*
X158231Y364277D01*
X158454Y364501D01*
X158771Y364501D01*
X158994Y364277D01*
X158994Y362691D01*
X159009Y362572D01*
X159017Y362454D01*
X159029Y362415D01*
X159034Y362375D01*
X159078Y362264D01*
X159115Y362151D01*
X159136Y362117D01*
X159151Y362079D01*
X159221Y361983D01*
X159285Y361883D01*
X159314Y361855D01*
X159338Y361822D01*
X159430Y361746D01*
X159516Y361665D01*
X159552Y361645D01*
X159583Y361619D01*
X159691Y361569D01*
X159795Y361511D01*
X159834Y361501D01*
X159871Y361484D01*
X159987Y361461D01*
X160103Y361432D01*
X160163Y361428D01*
X160183Y361424D01*
X160203Y361425D01*
X160264Y361421D01*
X160824Y361421D01*
X161047Y361198D01*
X161047Y360882D01*
X160824Y360658D01*
X160264Y360658D01*
X160145Y360643D01*
X160027Y360636D01*
X159988Y360623D01*
X159948Y360618D01*
X159837Y360574D01*
X159724Y360538D01*
X159690Y360516D01*
X159652Y360501D01*
X159556Y360431D01*
X159455Y360367D01*
X159428Y360338D01*
X159395Y360314D01*
X159319Y360222D01*
X159237Y360136D01*
X159218Y360100D01*
X159192Y360069D01*
X159141Y359962D01*
X159084Y359857D01*
X159074Y359818D01*
X159057Y359782D01*
X159034Y359665D01*
X159004Y359549D01*
X159001Y359489D01*
X158997Y359469D01*
X158998Y359449D01*
X158994Y359389D01*
X158994Y356532D01*
X159009Y356414D01*
X159017Y356295D01*
X159029Y356257D01*
X159034Y356216D01*
X159078Y356106D01*
X159115Y355993D01*
X159136Y355958D01*
X159151Y355921D01*
X159221Y355824D01*
X159285Y355724D01*
X159314Y355696D01*
X159338Y355663D01*
X159430Y355587D01*
X159516Y355506D01*
X159552Y355486D01*
X159583Y355461D01*
X159691Y355410D01*
X159795Y355352D01*
X159834Y355342D01*
X159871Y355325D01*
X159987Y355303D01*
X160103Y355273D01*
X160163Y355269D01*
X160183Y355265D01*
X160203Y355267D01*
X160264Y355263D01*
X160824Y355263D01*
X161047Y355039D01*
X161047Y354723D01*
X160824Y354499D01*
X159637Y354499D01*
G37*
%LPD*%
%LPC*%
G36*
X144291Y369499D02*
X144291Y369499D01*
X144067Y369723D01*
X144067Y376198D01*
X144291Y376421D01*
X147686Y376421D01*
X147910Y376198D01*
X147910Y374855D01*
X147686Y374631D01*
X147370Y374631D01*
X146997Y375004D01*
X146888Y375089D01*
X146781Y375178D01*
X146762Y375187D01*
X146746Y375199D01*
X146618Y375255D01*
X146493Y375314D01*
X146473Y375317D01*
X146454Y375326D01*
X146316Y375347D01*
X146180Y375373D01*
X146160Y375372D01*
X146140Y375375D01*
X146001Y375362D01*
X145863Y375354D01*
X145844Y375347D01*
X145824Y375346D01*
X145693Y375298D01*
X145561Y375256D01*
X145543Y375245D01*
X145524Y375238D01*
X145410Y375160D01*
X145292Y375085D01*
X145278Y375071D01*
X145261Y375059D01*
X145169Y374955D01*
X145074Y374854D01*
X145064Y374836D01*
X145051Y374821D01*
X144988Y374697D01*
X144920Y374575D01*
X144915Y374556D01*
X144906Y374538D01*
X144876Y374401D01*
X144841Y374267D01*
X144839Y374239D01*
X144836Y374227D01*
X144837Y374207D01*
X144831Y374107D01*
X144831Y369723D01*
X144607Y369499D01*
X144291Y369499D01*
G37*
%LPD*%
%LPC*%
G36*
X81639Y354499D02*
X81639Y354499D01*
X81415Y354723D01*
X81415Y360907D01*
X81401Y361021D01*
X81395Y361121D01*
X81398Y361130D01*
X81399Y361154D01*
X81405Y361178D01*
X81406Y361188D01*
X81514Y361297D01*
X81587Y361391D01*
X81666Y361480D01*
X81684Y361516D01*
X81709Y361548D01*
X81757Y361657D01*
X81798Y361739D01*
X81812Y361692D01*
X81832Y361657D01*
X81846Y361619D01*
X81913Y361520D01*
X81973Y361418D01*
X82013Y361372D01*
X82024Y361356D01*
X82040Y361342D01*
X82080Y361297D01*
X82179Y361198D01*
X82179Y354723D01*
X81955Y354499D01*
X81639Y354499D01*
G37*
%LPD*%
%LPC*%
G36*
X143282Y362697D02*
X143282Y362697D01*
X143262Y362732D01*
X143248Y362770D01*
X143181Y362868D01*
X143121Y362971D01*
X143081Y363016D01*
X143069Y363033D01*
X143054Y363046D01*
X143014Y363092D01*
X142658Y363448D01*
X142658Y364277D01*
X142882Y364501D01*
X143712Y364501D01*
X143935Y364277D01*
X143935Y363448D01*
X143579Y363092D01*
X143507Y362998D01*
X143428Y362909D01*
X143409Y362873D01*
X143384Y362841D01*
X143337Y362731D01*
X143296Y362650D01*
X143282Y362697D01*
G37*
%LPD*%
%LPC*%
G36*
X81782Y362697D02*
X81782Y362697D01*
X81762Y362732D01*
X81748Y362770D01*
X81681Y362868D01*
X81621Y362971D01*
X81581Y363016D01*
X81569Y363033D01*
X81554Y363046D01*
X81514Y363092D01*
X81159Y363448D01*
X81159Y364277D01*
X81382Y364501D01*
X82212Y364501D01*
X82435Y364277D01*
X82435Y363448D01*
X82080Y363092D01*
X82007Y362998D01*
X81928Y362909D01*
X81909Y362873D01*
X81885Y362841D01*
X81837Y362731D01*
X81796Y362650D01*
X81782Y362697D01*
G37*
%LPD*%
%LPC*%
G36*
X146482Y354499D02*
X146482Y354499D01*
X146258Y354723D01*
X146258Y355552D01*
X146482Y355776D01*
X147312Y355776D01*
X147535Y355552D01*
X147535Y355436D01*
X147545Y355362D01*
X147535Y355213D01*
X147535Y354723D01*
X147312Y354499D01*
X146482Y354499D01*
G37*
%LPD*%
%LPC*%
G36*
X80336Y369499D02*
X80336Y369499D01*
X80113Y369723D01*
X80113Y370552D01*
X80336Y370776D01*
X81166Y370776D01*
X81389Y370552D01*
X81389Y369723D01*
X81166Y369499D01*
X80336Y369499D01*
G37*
%LPD*%
%LPC*%
G36*
X41599Y105999D02*
X41599Y105999D01*
X41599Y106001D01*
X41601Y106001D01*
X41601Y105999D01*
X41599Y105999D01*
G37*
%LPD*%
%LPC*%
G36*
X130011Y159113D02*
X130011Y159113D01*
X130011Y159115D01*
X130013Y159115D01*
X130013Y159113D01*
X130011Y159113D01*
G37*
%LPD*%
%LPC*%
G36*
X41599Y161999D02*
X41599Y161999D01*
X41599Y162001D01*
X41601Y162001D01*
X41601Y161999D01*
X41599Y161999D01*
G37*
%LPD*%
D10*
X152550Y91450D02*
X157150Y91450D01*
X157150Y86750D01*
X152550Y86750D01*
X152550Y91450D01*
X152550Y91120D02*
X157150Y91120D01*
X166650Y86750D02*
X171250Y86750D01*
X166650Y86750D02*
X166650Y91450D01*
X171250Y91450D01*
X171250Y86750D01*
X171250Y91120D02*
X166650Y91120D01*
X156650Y185450D02*
X152050Y185450D01*
X156650Y185450D02*
X156650Y180750D01*
X152050Y180750D01*
X152050Y185450D01*
X152050Y185120D02*
X156650Y185120D01*
X166150Y180750D02*
X170750Y180750D01*
X166150Y180750D02*
X166150Y185450D01*
X170750Y185450D01*
X170750Y180750D01*
X170750Y185120D02*
X166150Y185120D01*
D11*
X76250Y119000D03*
X76250Y129000D03*
X76250Y139000D03*
X76250Y149000D03*
D12*
X41600Y162000D03*
X41600Y106000D03*
D13*
X130012Y159114D03*
X130012Y136000D03*
X130012Y112886D03*
D14*
X191990Y136000D03*
D15*
X17500Y12000D03*
X22500Y12000D03*
X27500Y12000D03*
X32500Y12000D03*
X37500Y12000D03*
X62500Y12000D03*
X67500Y12000D03*
X72500Y12000D03*
X77500Y12000D03*
X82500Y12000D03*
X87500Y12000D03*
X92500Y12000D03*
X97500Y12000D03*
X102500Y12000D03*
X107500Y12000D03*
X112500Y12000D03*
X117500Y12000D03*
X122500Y12000D03*
X127500Y12000D03*
X132500Y12000D03*
X137500Y12000D03*
X142500Y12000D03*
X147500Y12000D03*
X152500Y12000D03*
X157500Y12000D03*
X162500Y12000D03*
X167500Y12000D03*
X172500Y12000D03*
X177500Y12000D03*
X182500Y12000D03*
X187500Y12000D03*
X192500Y12000D03*
X197500Y12000D03*
X202500Y12000D03*
D16*
X186000Y266000D03*
X178000Y266000D03*
X170000Y266000D03*
X162000Y266000D03*
X154000Y266000D03*
X146000Y266000D03*
X138000Y266000D03*
X130000Y266000D03*
X122000Y266000D03*
X114000Y266000D03*
X106000Y266000D03*
X98000Y266000D03*
X77000Y266000D03*
X69000Y266000D03*
X61000Y266000D03*
X53000Y266000D03*
X45000Y266000D03*
X37000Y266000D03*
D17*
X208000Y241500D02*
X208000Y226500D01*
X13000Y226500D02*
X13000Y241500D01*
X103000Y199000D02*
X118000Y199000D01*
D18*
X105000Y119000D02*
X76250Y119000D01*
X111114Y112886D02*
X130012Y112886D01*
X111114Y112886D02*
X105000Y119000D01*
X130012Y112886D02*
X133000Y109898D01*
X133000Y97000D01*
X140900Y89100D01*
X154850Y89100D01*
D19*
X94000Y135750D02*
X87250Y129000D01*
X76250Y129000D01*
X94000Y177000D02*
X53000Y218000D01*
X53000Y266000D01*
X94000Y177000D02*
X94000Y135750D01*
X88000Y142750D02*
X84250Y139000D01*
X76250Y139000D01*
X45000Y218000D02*
X45000Y266000D01*
X88000Y175000D02*
X88000Y142750D01*
X88000Y175000D02*
X45000Y218000D01*
D18*
X116000Y136000D02*
X130012Y136000D01*
X119100Y183100D02*
X154350Y183100D01*
X116000Y136000D02*
X107000Y145000D01*
X107000Y171000D01*
X119100Y183100D01*
X154350Y183100D02*
X154350Y200350D01*
X186000Y232000D01*
X186000Y266000D01*
X186000Y293000D01*
X37000Y295000D02*
X37000Y266000D01*
X175000Y304000D02*
X186000Y293000D01*
X175000Y304000D02*
X46000Y304000D01*
X37000Y295000D01*
D20*
X130012Y136000D02*
X191990Y136000D01*
D21*
X61000Y240000D03*
D19*
X61000Y266000D01*
D21*
X69000Y232000D03*
D19*
X69000Y266000D01*
D21*
X109000Y56000D03*
D19*
X109000Y44500D01*
X102500Y38000D01*
X102500Y12000D01*
D21*
X106000Y239000D03*
D19*
X106000Y266000D01*
D21*
X98000Y56000D03*
D19*
X98000Y12500D01*
X97500Y12000D01*
D21*
X95000Y230000D03*
D19*
X114000Y233000D02*
X114000Y266000D01*
X114000Y233000D02*
X111000Y230000D01*
X95000Y230000D01*
D21*
X130000Y77000D03*
D19*
X66500Y77000D01*
X57500Y68000D02*
X57500Y52000D01*
X72500Y37000D01*
X72500Y12000D01*
D21*
X130000Y239000D03*
D19*
X130000Y266000D01*
X66500Y77000D02*
X57500Y68000D01*
D21*
X130000Y87000D03*
D19*
X125000Y82000D01*
X59000Y82000D01*
X51000Y74000D01*
X51000Y50500D01*
X67500Y34000D02*
X67500Y12000D01*
X67500Y34000D02*
X51000Y50500D01*
D21*
X122000Y230000D03*
D19*
X138000Y235000D02*
X138000Y266000D01*
X138000Y235000D02*
X133000Y230000D01*
X122000Y230000D01*
D21*
X150000Y69000D03*
D19*
X88275Y69000D01*
X82952Y63677D01*
X82952Y12452D02*
X82500Y12000D01*
X82952Y12452D02*
X82952Y63677D01*
D21*
X162000Y229000D03*
D19*
X162000Y266000D01*
D21*
X87000Y48000D03*
D19*
X87000Y12500D01*
X87500Y12000D01*
D21*
X154000Y238000D03*
D19*
X154000Y266000D01*
D21*
X173000Y235000D03*
D19*
X178000Y244000D02*
X178000Y266000D01*
X178000Y244000D02*
X173000Y239000D01*
X173000Y235000D01*
D21*
X77000Y240000D03*
X70000Y88000D03*
X85000Y88000D03*
D19*
X70000Y88000D01*
X77000Y240000D02*
X77000Y266000D01*
D21*
X91000Y264000D03*
D19*
X41600Y162000D02*
X41600Y106000D01*
X130012Y159114D02*
X155886Y159114D01*
X156000Y159000D01*
X168450Y171450D01*
D21*
X64000Y60000D03*
X45000Y174000D03*
X18000Y180000D03*
X21000Y88000D03*
X124000Y173000D03*
D19*
X45000Y174000D02*
X45000Y165400D01*
X42300Y162700D02*
X41600Y162000D01*
X42300Y162700D02*
X45000Y165400D01*
X45000Y174000D02*
X24000Y174000D01*
X18000Y180000D01*
D21*
X53000Y92000D03*
D19*
X32600Y88000D02*
X21000Y88000D01*
X124000Y165126D02*
X130012Y159114D01*
X124000Y165126D02*
X124000Y173000D01*
X168450Y171450D02*
X168450Y183100D01*
X76250Y149000D02*
X56000Y149000D01*
X42300Y162700D01*
X41600Y106000D02*
X41600Y97000D01*
X32600Y88000D01*
X62500Y33500D02*
X62500Y12000D01*
X17500Y12000D02*
X17500Y45000D01*
X17500Y84500D01*
X21000Y88000D01*
X27500Y44500D02*
X27500Y12000D01*
X27500Y44500D02*
X27000Y45000D01*
X17500Y45000D01*
X91000Y264000D02*
X96000Y264000D01*
X98000Y266000D01*
X98000Y287000D01*
X101000Y290000D01*
X170000Y287000D02*
X170000Y266000D01*
X170000Y287000D02*
X167000Y290000D01*
X146000Y290000D01*
X122000Y290000D01*
X101000Y290000D01*
X122000Y290000D02*
X122000Y266000D01*
X146000Y266000D02*
X146000Y290000D01*
X168950Y89100D02*
X194100Y89100D01*
X200900Y183100D02*
X168450Y183100D01*
X202000Y97000D02*
X194100Y89100D01*
X202000Y97000D02*
X209500Y104500D01*
X210000Y105000D01*
X213000Y108000D02*
X213000Y168000D01*
X213000Y171000D01*
X200900Y183100D01*
X202500Y55000D02*
X202500Y12000D01*
X202500Y55000D02*
X202500Y65000D01*
X202500Y96500D01*
X202000Y97000D01*
X197500Y50000D02*
X197500Y12000D01*
X197500Y50000D02*
X202500Y55000D01*
X182500Y45000D02*
X182500Y12000D01*
X182500Y45000D02*
X192750Y55250D01*
X202500Y65000D01*
X167500Y53500D02*
X167500Y12000D01*
X169250Y55250D02*
X192750Y55250D01*
X169250Y55250D02*
X167500Y53500D01*
X152500Y38500D01*
X152500Y12000D01*
X137500Y12000D02*
X137500Y44500D01*
X148250Y55250D02*
X169250Y55250D01*
X148250Y55250D02*
X137500Y44500D01*
X122500Y51500D02*
X122500Y12000D01*
X126250Y55250D02*
X148250Y55250D01*
X126250Y55250D02*
X122500Y51500D01*
X107500Y36500D02*
X107500Y12000D01*
X107500Y36500D02*
X122500Y51500D01*
X92500Y60500D02*
X92500Y12000D01*
X92500Y60500D02*
X95000Y63000D01*
X120000Y63000D01*
X126250Y56750D02*
X126250Y55250D01*
X126250Y56750D02*
X120000Y63000D01*
X62500Y33500D02*
X51000Y45000D01*
X27000Y45000D01*
X77500Y46500D02*
X77500Y12000D01*
X77500Y46500D02*
X64000Y60000D01*
D21*
X17000Y280000D03*
X86000Y292000D03*
X208000Y275000D03*
X44000Y330000D03*
X88000Y330000D03*
X132000Y330000D03*
X176000Y330000D03*
X196000Y169000D03*
X14000Y146000D03*
X120000Y97000D03*
X192000Y105000D03*
D19*
X196000Y169000D02*
X212000Y169000D01*
X213000Y168000D01*
X210000Y105000D02*
X192000Y105000D01*
X120000Y97000D02*
X58000Y97000D01*
X53000Y92000D01*
X41600Y103400D01*
X41600Y106000D01*
X210000Y105000D02*
X213000Y108000D01*
D21*
X168000Y70000D03*
M02*
